<?xml version="1.0" standalone="no"?>
<!DOCTYPE svg PUBLIC "-//W3C//DTD SVG 20010904//EN"
 "http://www.w3.org/TR/2001/REC-SVG-20010904/DTD/svg10.dtd">
<svg version="1.0" xmlns="http://www.w3.org/2000/svg"
 width="579.000000pt" height="579.000000pt" viewBox="0 0 579.000000 579.000000"
 preserveAspectRatio="xMidYMid meet">
<metadata>
Created by potrace 1.11, written by Peter Selinger 2001-2013
</metadata>
<g transform="translate(0.000000,579.000000) scale(0.100000,-0.100000)"
fill="#000000" stroke="none">
<path d="M2668 5440 c-434 -28 -775 -133 -1030 -317 -97 -70 -230 -207 -293
-302 -42 -63 -52 -71 -79 -71 -80 0 -337 -58 -516 -116 -220 -71 -349 -143
-455 -256 -121 -128 -171 -275 -162 -473 15 -312 162 -663 385 -921 l69 -80
11 -164 c18 -260 66 -477 153 -697 73 -184 204 -407 327 -556 32 -38 68 -82
81 -98 l23 -29 -21 -82 c-32 -126 -44 -229 -45 -383 -1 -118 3 -151 21 -210
93 -295 352 -398 968 -382 283 7 410 30 547 98 47 24 70 29 130 29 90 0 192
21 265 55 l55 25 46 -41 c135 -118 358 -169 741 -169 565 0 816 117 886 411
39 168 6 494 -69 681 l-25 62 43 56 c274 349 437 786 462 1245 l7 120 60 65
c189 202 334 480 398 760 28 125 35 297 15 390 -45 209 -185 368 -421 476
-144 65 -440 148 -620 174 -44 6 -93 13 -110 16 -24 4 -39 19 -75 76 -134 210
-391 395 -688 495 -275 92 -712 137 -1084 113z m472 -135 c372 -18 722 -126
945 -292 344 -256 498 -655 499 -1293 1 -205 -2 -249 -22 -346 -43 -215 -124
-414 -239 -589 -58 -87 -172 -230 -179 -223 -1 2 -10 39 -19 83 -23 112 -50
169 -102 215 -122 107 -325 96 -450 -24 -57 -56 -58 -54 -17 48 29 72 30 100
4 126 -22 22 -51 26 -80 10 -26 -14 -73 -135 -114 -291 -63 -243 -90 -429
-108 -745 -12 -231 -2 -545 27 -803 17 -147 12 -206 -25 -303 -69 -186 -272
-318 -484 -318 -179 1 -373 116 -450 269 -85 166 -71 371 34 513 l30 42 0 -35
c0 -18 -7 -88 -15 -154 -14 -113 -14 -121 4 -145 25 -34 70 -38 98 -8 18 19
24 48 40 188 26 236 26 844 0 1045 -43 330 -130 665 -191 736 -24 29 -73 22
-99 -13 l-20 -27 26 -68 c24 -61 57 -160 57 -173 0 -3 -16 19 -36 48 -107 160
-330 204 -487 95 -48 -34 -93 -124 -114 -233 l-17 -83 -40 48 c-130 152 -262
381 -321 558 -68 204 -93 428 -76 687 28 450 120 736 313 975 234 291 645 458
1193 484 156 8 198 7 435 -4z m1542 -705 c144 -28 341 -84 452 -129 350 -140
467 -349 397 -709 -92 -475 -416 -885 -796 -1008 -78 -25 -285 -47 -285 -30 0
4 18 39 41 78 105 179 184 410 214 626 14 101 17 167 12 360 -7 319 -42 534
-120 742 -19 50 -31 90 -26 90 5 0 55 -9 111 -20z m-3494 -67 c-39 -100 -81
-267 -104 -413 -15 -91 -19 -174 -19 -400 0 -261 2 -294 23 -390 44 -199 131
-423 218 -562 13 -20 24 -41 24 -44 0 -10 -147 5 -215 22 -88 22 -232 95 -323
164 -192 144 -359 383 -452 645 -167 472 -66 748 331 910 98 40 292 97 423
124 136 29 129 33 94 -56z m830 -1745 c33 -8 60 -25 94 -59 41 -41 48 -54 48
-88 0 -53 -71 -191 -154 -302 -72 -96 -194 -215 -207 -202 -15 15 -29 137 -29
254 0 196 37 351 92 380 55 30 91 34 156 17z m1900 -14 c62 -46 92 -164 92
-373 0 -159 -14 -271 -35 -271 -39 0 -213 198 -289 330 -61 104 -83 178 -66
220 16 37 83 97 125 110 49 15 142 6 173 -16z m-3023 -91 c140 -71 329 -109
468 -94 62 7 68 5 82 -15 8 -12 52 -62 98 -111 l84 -88 7 -90 c25 -316 114
-379 308 -221 l56 46 94 -44 c51 -24 138 -59 193 -77 55 -18 106 -40 112 -48
9 -10 13 -61 13 -173 0 -87 -2 -158 -5 -158 -3 0 -27 11 -54 25 -73 37 -266
101 -377 125 -121 26 -290 29 -379 5 -127 -33 -246 -114 -315 -214 -19 -27
-38 -50 -42 -51 -13 0 -164 209 -229 317 -154 260 -256 581 -276 871 l-6 94
54 -35 c30 -19 81 -48 114 -64z m4158 25 c-27 -353 -149 -704 -342 -989 -109
-161 -90 -151 -162 -85 -112 104 -232 147 -408 147 -184 1 -421 -64 -638 -172
l-113 -57 0 202 1 201 102 33 c56 18 144 53 195 77 l93 44 55 -44 c195 -159
283 -94 309 225 l7 85 82 85 c45 47 91 97 103 112 20 27 21 27 99 19 182 -21
413 38 579 148 17 11 33 20 36 20 3 1 4 -23 2 -51z m-2719 -158 c22 -108 47
-286 59 -412 2 -25 -1 -38 -9 -38 -21 0 -168 57 -233 89 l-60 31 55 77 c93
129 154 267 154 346 0 22 2 38 5 36 2 -3 15 -61 29 -129z m1166 -10 c24 -72
87 -186 150 -270 l41 -55 -58 -27 c-75 -35 -225 -90 -230 -85 -6 7 26 264 49
389 12 65 23 117 24 115 1 -1 12 -31 24 -67z m-1596 -905 c92 -16 242 -61 341
-102 33 -14 61 -26 63 -28 2 -1 -19 -31 -45 -66 -141 -186 -169 -408 -80 -628
28 -69 20 -91 -22 -62 -78 53 -207 63 -297 22 l-52 -23 -43 31 c-149 108 -379
58 -457 -99 l-19 -40 -17 45 c-39 101 -42 250 -10 450 39 240 133 398 280 467
106 49 209 59 358 33z m2359 0 c220 -46 348 -237 388 -575 18 -159 0 -390 -31
-390 -4 0 -13 13 -20 30 -16 39 -81 97 -139 123 -35 17 -65 22 -126 22 -93 -1
-163 -26 -214 -79 l-32 -33 -57 31 c-50 27 -67 31 -137 31 -62 0 -91 -6 -131
-23 l-52 -24 -43 31 c-60 44 -138 65 -214 58 l-61 -6 17 67 c22 82 23 186 4
357 l-14 130 27 23 c67 56 301 160 444 198 170 44 280 53 391 29z m157 -940
c45 -23 72 -61 77 -108 5 -38 2 -45 -19 -59 -38 -25 -157 -58 -217 -61 l-54
-2 -11 65 c-6 36 -15 70 -19 77 -12 18 51 81 98 98 43 16 103 11 145 -10z
m-2750 -10 c48 -25 54 -40 36 -85 -9 -22 -16 -65 -16 -95 0 -46 -3 -55 -17
-55 -35 0 -171 37 -209 57 -35 18 -39 25 -42 61 -3 35 2 47 30 77 56 61 146
77 218 40z m1867 10 c27 -8 57 -23 67 -33 15 -17 15 -22 1 -55 -8 -20 -15 -64
-15 -97 0 -71 -1 -71 -115 -41 -88 22 -143 48 -156 73 -24 45 33 127 107 153
50 18 51 18 111 0z m450 -58 c51 -27 79 -85 75 -155 -3 -36 -55 -52 -171 -52
-99 0 -149 10 -163 33 -17 27 -8 90 18 124 60 79 148 98 241 50z m-1920 12
c41 -15 70 -47 89 -95 37 -98 -7 -127 -182 -122 -93 2 -115 6 -133 22 -45 41
-16 133 58 183 38 26 118 31 168 12z m276 -55 c29 -26 74 -59 101 -74 l49 -28
-41 -12 c-23 -6 -65 -12 -94 -13 l-53 -2 -6 45 c-3 25 -10 64 -14 88 -4 23 -4
42 0 42 4 0 30 -21 58 -46z"/>
<path d="M2220 4496 c-213 -62 -365 -232 -390 -438 -36 -307 212 -579 529
-578 382 1 638 399 472 735 -62 126 -167 220 -296 266 -75 27 -247 35 -315 15z
m280 -145 c192 -74 291 -269 234 -462 -83 -280 -451 -369 -661 -160 -183 182
-134 487 97 606 95 49 227 55 330 16z"/>
<path d="M2387 4048 c-72 -42 -97 -144 -49 -207 36 -48 70 -66 127 -66 80 0
141 53 152 132 16 118 -123 203 -230 141z"/>
<path d="M3291 4494 c-184 -49 -333 -202 -376 -386 -75 -320 180 -629 518
-628 288 1 527 235 527 515 0 233 -164 439 -397 500 -71 19 -201 18 -272 -1z
m229 -125 c108 -25 219 -110 268 -205 68 -133 44 -306 -58 -417 -195 -214
-541 -163 -660 97 -131 284 137 597 450 525z"/>
<path d="M3252 4054 c-74 -38 -104 -139 -60 -203 38 -57 73 -76 133 -76 88 0
150 60 150 145 0 52 -19 87 -67 123 -36 27 -114 32 -156 11z"/>
<path d="M2738 3361 c-69 -22 -137 -61 -189 -108 -44 -40 -53 -87 -21 -116 25
-23 75 -21 97 3 59 65 199 117 284 105 81 -11 144 -33 213 -75 74 -45 106 -50
133 -20 24 27 22 66 -5 95 -32 34 -164 100 -236 119 -82 21 -204 20 -276 -3z"/>
<path d="M2782 2864 c-143 -38 -211 -117 -150 -174 28 -26 55 -25 98 4 83 56
199 61 301 12 66 -31 100 -33 122 -8 22 24 22 75 -1 95 -26 24 -119 63 -180
76 -69 14 -124 13 -190 -5z"/>
<path d="M2751 2391 c-105 -40 -140 -92 -91 -141 25 -25 60 -25 108 -1 73 37
161 34 268 -10 62 -25 115 16 100 76 -5 20 -22 33 -73 57 -56 27 -80 32 -162
35 -78 3 -106 0 -150 -16z"/>
</g>
</svg>
