<?xml version="1.0" standalone="no"?>
<!DOCTYPE svg PUBLIC "-//W3C//DTD SVG 20010904//EN"
 "http://www.w3.org/TR/2001/REC-SVG-20010904/DTD/svg10.dtd">
<svg version="1.0" xmlns="http://www.w3.org/2000/svg"
 width="292.000000pt" height="292.000000pt" viewBox="0 0 292.000000 292.000000"
 preserveAspectRatio="xMidYMid meet">
<metadata>
Created by potrace 1.11, written by Peter Selinger 2001-2013
</metadata>
<g transform="translate(0.000000,292.000000) scale(0.100000,-0.100000)"
fill="#000000" stroke="none">
<path d="M1335 2454 c-299 -22 -550 -86 -769 -196 -166 -83 -291 -177 -388
-293 -58 -69 -142 -221 -154 -280 -3 -16 10 4 28 45 151 337 545 579 1083 666
81 14 166 18 325 18 231 0 343 -12 535 -61 290 -72 550 -214 712 -387 79 -84
119 -143 161 -236 18 -41 31 -61 28 -45 -12 59 -96 211 -154 280 -97 116 -222
210 -388 293 -175 88 -371 147 -586 177 -108 15 -348 25 -433 19z"/>
<path d="M1174 2158 l-19 -23 23 19 c21 18 27 26 19 26 -2 0 -12 -10 -23 -22z"/>
<path d="M929 2119 c-88 -60 -144 -113 -205 -194 -25 -33 -34 -46 -19 -30 80
90 167 172 225 213 71 50 87 62 79 62 -3 0 -39 -23 -80 -51z"/>
<path d="M1900 2157 c0 -2 21 -19 48 -37 26 -18 59 -44 74 -58 15 -14 30 -23
33 -20 3 3 -25 28 -62 55 -73 53 -93 66 -93 60z"/>
<path d="M1830 2046 c48 -50 103 -115 124 -143 21 -29 40 -53 42 -53 15 0 -73
107 -156 191 l-95 95 85 -90z"/>
<path d="M1059 2053 c-62 -66 -135 -149 -93 -108 48 47 167 175 163 175 -3 0
-34 -30 -70 -67z"/>
<path d="M1930 2087 c0 -2 15 -16 33 -33 l32 -29 -29 33 c-28 30 -36 37 -36
29z"/>
<path d="M865 1998 l-80 -83 83 80 c76 74 87 85 79 85 -1 0 -38 -37 -82 -82z"/>
<path d="M2125 2050 c10 -11 20 -20 23 -20 3 0 -3 9 -13 20 -10 11 -20 20 -23
20 -3 0 3 -9 13 -20z"/>
<path d="M705 1998 l-60 -63 63 60 c34 33 62 61 62 62 0 8 -10 -1 -65 -59z"/>
<path d="M2045 1978 c27 -32 51 -58 53 -58 7 0 -55 74 -79 95 -13 11 -1 -6 26
-37z"/>
<path d="M2180 2005 c13 -14 26 -25 28 -25 3 0 -5 11 -18 25 -13 14 -26 25
-28 25 -3 0 5 -11 18 -25z"/>
<path d="M2145 1943 c37 -46 70 -83 72 -83 8 0 -85 115 -113 140 -15 14 3 -12
41 -57z"/>
<path d="M2225 1950 c10 -11 20 -20 23 -20 3 0 -3 9 -13 20 -10 11 -20 20 -23
20 -3 0 3 -9 13 -20z"/>
<path d="M879 1933 c-13 -16 -12 -17 4 -4 9 7 17 15 17 17 0 8 -8 3 -21 -13z"/>
<path d="M2000 1936 c0 -2 8 -10 18 -17 15 -13 16 -12 3 4 -13 16 -21 21 -21
13z"/>
<path d="M633 1918 c-15 -20 -25 -38 -20 -38 3 0 12 11 21 25 17 26 16 35 -1
13z"/>
<path d="M849 1893 c-13 -16 -12 -17 4 -4 9 7 17 15 17 17 0 8 -8 3 -21 -13z"/>
<path d="M2045 1876 c10 -14 19 -26 22 -26 7 0 -17 39 -28 46 -6 3 -3 -5 6
-20z"/>
<path d="M908 1873 c-15 -18 -46 -73 -35 -63 9 8 57 80 53 80 -1 0 -10 -8 -18
-17z"/>
<path d="M2280 1870 c6 -11 13 -20 16 -20 2 0 0 9 -6 20 -6 11 -13 20 -16 20
-2 0 0 -9 6 -20z"/>
<path d="M585 1840 c-9 -16 -13 -30 -11 -30 3 0 12 14 21 30 9 17 13 30 11 30
-3 0 -12 -13 -21 -30z"/>
<path d="M2200 1825 c13 -14 26 -25 28 -25 3 0 -5 11 -18 25 -13 14 -26 25
-28 25 -3 0 5 -11 18 -25z"/>
<path d="M679 1823 c-13 -16 -12 -17 4 -4 9 7 17 15 17 17 0 8 -8 3 -21 -13z"/>
<path d="M2311 1820 c14 -31 19 -36 19 -24 0 6 -7 19 -16 30 -14 18 -14 18 -3
-6z"/>
<path d="M2020 1800 c6 -11 13 -20 16 -20 2 0 0 9 -6 20 -6 11 -13 20 -16 20
-2 0 0 -9 6 -20z"/>
<path d="M556 1783 c-6 -14 -5 -15 5 -6 7 7 10 15 7 18 -3 3 -9 -2 -12 -12z"/>
<path d="M856 1791 c-11 -17 -27 -66 -19 -56 12 13 34 65 28 65 -2 0 -6 -4 -9
-9z"/>
<path d="M1049 1743 c-13 -16 -12 -17 4 -4 9 7 17 15 17 17 0 8 -8 3 -21 -13z"/>
<path d="M1680 1737 c0 -2 15 -16 33 -33 l32 -29 -29 33 c-28 30 -36 37 -36
29z"/>
<path d="M1860 1726 c0 -2 8 -10 18 -17 15 -13 16 -12 3 4 -13 16 -21 21 -21
13z"/>
<path d="M590 1706 c0 -2 8 -10 18 -17 15 -13 16 -12 3 4 -13 16 -21 21 -21
13z"/>
<path d="M2170 1686 c0 -2 8 -10 18 -17 15 -13 16 -12 3 4 -13 16 -21 21 -21
13z"/>
<path d="M2081 1644 c0 -11 3 -14 6 -6 3 7 2 16 -1 19 -3 4 -6 -2 -5 -13z"/>
<path d="M11 1634 c0 -11 3 -14 6 -6 3 7 2 16 -1 19 -3 4 -6 -2 -5 -13z"/>
<path d="M2901 1634 c0 -11 3 -14 6 -6 3 7 2 16 -1 19 -3 4 -6 -2 -5 -13z"/>
<path d="M1729 1613 c-13 -16 -12 -17 4 -4 16 13 21 21 13 21 -2 0 -10 -8 -17
-17z"/>
<path d="M1015 1590 c10 -11 20 -20 23 -20 3 0 -3 9 -13 20 -10 11 -20 20 -23
20 -3 0 3 -9 13 -20z"/>
<path d="M2304 1578 l-19 -23 23 19 c21 18 27 26 19 26 -2 0 -12 -10 -23 -22z"/>
<path d="M2190 1586 c0 -2 8 -10 18 -17 15 -13 16 -12 3 4 -13 16 -21 21 -21
13z"/>
<path d="M2481 1574 c0 -11 3 -14 6 -6 3 7 2 16 -1 19 -3 4 -6 -2 -5 -13z"/>
<path d="M402 1560 c0 -14 2 -19 5 -12 2 6 2 18 0 25 -3 6 -5 1 -5 -13z"/>
<path d="M1060 1523 c8 -3 22 -11 30 -17 13 -10 13 -9 1 7 -7 9 -21 17 -30 16
-13 0 -14 -1 -1 -6z"/>
<path d="M2493 1495 c0 -22 2 -30 4 -17 2 12 2 30 0 40 -3 9 -5 -1 -4 -23z"/>
<path d="M393 1470 c0 -25 2 -35 4 -22 2 12 2 32 0 45 -2 12 -4 2 -4 -23z"/>
<path d="M1970 1426 c0 -2 8 -10 18 -17 15 -13 16 -12 3 4 -13 16 -21 21 -21
13z"/>
<path d="M2440 1385 c-11 -13 -10 -14 4 -9 9 3 16 10 16 15 0 13 -6 11 -20 -6z"/>
<path d="M689 1363 c-13 -16 -12 -17 4 -4 9 7 17 15 17 17 0 8 -8 3 -21 -13z"/>
<path d="M2180 1376 c0 -2 8 -10 18 -17 15 -13 16 -12 3 4 -13 16 -21 21 -21
13z"/>
<path d="M580 1366 c0 -2 8 -10 18 -17 15 -13 16 -12 3 4 -13 16 -21 21 -21
13z"/>
<path d="M1960 1326 c0 -2 8 -10 18 -17 15 -13 16 -12 3 4 -13 16 -21 21 -21
13z"/>
<path d="M2021 1303 c7 -12 15 -20 18 -17 3 2 -3 12 -13 22 -17 16 -18 16 -5
-5z"/>
<path d="M2255 1300 c-3 -5 -1 -10 4 -10 6 0 11 5 11 10 0 6 -2 10 -4 10 -3 0
-8 -4 -11 -10z"/>
<path d="M635 1230 c10 -11 20 -20 23 -20 3 0 -3 9 -13 20 -10 11 -20 20 -23
20 -3 0 3 -9 13 -20z"/>
<path d="M2249 1233 c-13 -16 -12 -17 4 -4 16 13 21 21 13 21 -2 0 -10 -8 -17
-17z"/>
<path d="M440 1226 c7 -7 13 -7 20 0 6 6 3 10 -10 10 -13 0 -16 -4 -10 -10z"/>
<path d="M2430 1226 c7 -7 13 -7 20 0 6 6 3 10 -10 10 -13 0 -16 -4 -10 -10z"/>
<path d="M2049 1203 c-13 -16 -12 -17 4 -4 16 13 21 21 13 21 -2 0 -10 -8 -17
-17z"/>
<path d="M2199 1123 c-13 -16 -12 -17 4 -4 16 13 21 21 13 21 -2 0 -10 -8 -17
-17z"/>
<path d="M2379 1073 c-13 -16 -12 -17 4 -4 16 13 21 21 13 21 -2 0 -10 -8 -17
-17z"/>
<path d="M2466 1073 c-6 -14 -5 -15 5 -6 7 7 10 15 7 18 -3 3 -9 -2 -12 -12z"/>
<path d="M656 1063 c-6 -14 -5 -15 5 -6 7 7 10 15 7 18 -3 3 -9 -2 -12 -12z"/>
<path d="M2059 1043 c-13 -16 -12 -17 4 -4 9 7 17 15 17 17 0 8 -8 3 -21 -13z"/>
<path d="M800 1015 c31 -32 65 -40 39 -9 -6 7 -15 12 -19 9 -10 -6 -32 20 -23
28 3 4 -2 7 -12 7 -16 0 -13 -6 15 -35z"/>
<path d="M1770 1043 c0 -6 8 -17 18 -24 16 -13 16 -13 2 6 -8 11 -16 22 -17
24 -2 2 -3 0 -3 -6z"/>
<path d="M1106 1032 c-2 -4 4 -8 14 -8 10 0 16 4 14 8 -3 4 -9 8 -14 8 -5 0
-11 -4 -14 -8z"/>
<path d="M2286 1027 c3 -10 9 -15 12 -12 3 3 0 11 -7 18 -10 9 -11 8 -5 -6z"/>
<path d="M1840 1005 c8 -11 15 -21 16 -23 1 -2 5 5 8 15 4 9 4 14 0 10 -4 -4
-14 -1 -23 6 -14 11 -15 10 -1 -8z"/>
<path d="M450 1006 c0 -2 8 -10 18 -17 15 -13 16 -12 3 4 -13 16 -21 21 -21
13z"/>
<path d="M2034 968 l-19 -23 23 19 c21 18 27 26 19 26 -2 0 -12 -10 -23 -22z"/>
<path d="M1090 957 c0 -2 6 -10 14 -16 11 -9 16 -9 22 1 4 7 4 10 -1 6 -4 -4
-14 -3 -22 3 -7 6 -13 9 -13 6z"/>
<path d="M1963 914 l-28 -25 33 22 c17 13 32 24 32 26 0 8 -11 1 -37 -23z"/>
<path d="M925 910 c10 -11 20 -20 23 -20 3 0 -3 9 -13 20 -10 11 -20 20 -23
20 -3 0 3 -9 13 -20z"/>
<path d="M351 897 c-6 -6 -11 -16 -11 -21 0 -6 4 -5 9 3 8 12 12 12 25 2 20
-16 21 -5 2 14 -10 10 -16 11 -25 2z"/>
<path d="M421 896 c-7 -8 -11 -23 -8 -33 4 -15 5 -14 6 4 0 12 7 23 14 26 6 2
9 7 6 11 -3 4 -12 0 -18 -8z"/>
<path d="M490 900 c0 -5 5 -10 10 -10 6 0 10 -7 10 -15 0 -8 5 -15 10 -15 13
0 12 11 -4 33 -15 19 -26 22 -26 7z"/>
<path d="M720 895 c-19 -7 -28 -14 -20 -15 27 -2 -42 -32 -76 -33 -40 -1 -41
-3 -13 -17 15 -9 30 -7 64 6 24 9 60 14 79 12 37 -4 40 0 30 40 -7 25 -15 26
-64 7z"/>
<path d="M2112 890 c-23 -37 -15 -45 40 -45 29 -1 68 -7 86 -15 30 -14 33 -13
55 9 21 23 21 23 1 12 -22 -11 -65 -3 -101 18 -14 8 -15 11 -3 11 8 1 -1 8
-20 15 -46 18 -43 18 -58 -5z"/>
<path d="M2380 896 c-6 -9 -10 -21 -7 -28 4 -9 6 -7 6 4 1 9 7 18 14 21 6 2 9
7 6 11 -3 4 -12 0 -19 -8z"/>
<path d="M2450 900 c0 -5 5 -10 10 -10 6 0 10 -10 10 -22 0 -12 3 -19 6 -15 9
9 -5 57 -16 57 -6 0 -10 -4 -10 -10z"/>
<path d="M2512 895 c-10 -12 -9 -18 5 -35 10 -11 21 -20 26 -20 5 0 1 7 -7 16
-18 18 -21 34 -6 34 6 0 10 -5 10 -12 0 -6 2 -9 5 -6 7 6 -5 38 -14 38 -3 -1
-12 -7 -19 -15z"/>
<path d="M450 869 c-8 -12 -20 -26 -26 -32 -7 -8 -1 -19 20 -38 l31 -28 29 32
c18 19 24 33 17 35 -7 2 -22 15 -34 28 l-23 24 -14 -21z m49 -36 c2 -1 -4 -9
-13 -18 -13 -13 -18 -14 -29 -3 -21 19 1 52 23 35 8 -6 17 -12 19 -14z"/>
<path d="M1900 869 c-22 -18 -22 -19 -3 -10 12 6 25 16 28 21 9 15 3 12 -25
-11z"/>
<path d="M2396 858 l-28 -27 25 -31 c23 -27 27 -28 41 -15 18 18 23 19 29 3 2
-7 2 -3 1 9 -2 12 0 23 6 25 5 2 -3 17 -18 34 l-27 30 -29 -28z m40 -44 c-13
-12 -18 -13 -30 -2 -12 11 -12 15 1 30 13 15 17 15 30 3 13 -13 12 -17 -1 -31z"/>
<path d="M352 854 c-7 -8 -8 -14 -3 -14 10 0 25 19 20 25 -2 1 -10 -3 -17 -11z"/>
<path d="M2323 864 c4 -4 -1 -16 -10 -26 -16 -18 -16 -18 0 -12 22 8 22 -5 0
-23 -16 -12 -14 -12 9 -2 22 10 25 15 17 26 -9 9 -8 13 0 13 17 0 13 17 -6 24
-10 4 -14 4 -10 0z"/>
<path d="M555 833 c0 -14 8 -29 20 -34 18 -10 19 -9 3 4 -22 17 -23 31 -4 24
10 -4 13 -1 10 8 -10 25 -30 24 -29 -2z"/>
<path d="M1393 853 c-9 -3 -13 -26 -13 -63 0 -32 -4 -62 -10 -65 -15 -9 -12
-25 4 -25 15 0 26 42 26 101 0 28 4 39 15 39 12 0 15 -14 15 -65 0 -53 3 -65
16 -65 14 0 16 8 10 61 -10 90 -19 100 -63 82z"/>
<path d="M1514 846 c-19 -14 -19 -15 1 -13 11 1 21 -5 23 -15 2 -13 -3 -18
-17 -18 -12 0 -21 6 -21 13 0 8 -4 7 -10 -3 -12 -19 -13 -87 -1 -95 5 -3 11 7
13 22 2 20 9 28 23 28 16 0 20 -6 18 -27 -1 -19 3 -28 13 -28 18 0 20 87 2
125 -13 29 -17 30 -44 11z"/>
<path d="M1328 840 c-4 -8 -9 -28 -13 -43 -5 -23 -9 -27 -20 -17 -8 6 -15 21
-17 33 -2 12 -7 21 -13 20 -19 -4 -15 -30 10 -67 24 -36 25 -40 10 -62 -18
-28 -6 -32 17 -6 22 24 41 91 36 127 -3 19 -6 25 -10 15z"/>
<path d="M2035 843 c-36 -9 -36 -19 0 -15 19 2 32 8 29 13 -3 5 -6 8 -7 8 -1
-1 -11 -3 -22 -6z"/>
<path d="M830 836 c0 -2 13 -6 29 -8 17 -2 28 -1 25 4 -5 8 -54 12 -54 4z"/>
<path d="M354 819 c-3 -6 -1 -14 5 -18 6 -4 10 -14 8 -22 -2 -8 -2 -11 0 -6 9
15 25 6 19 -10 -4 -10 -3 -14 1 -9 12 12 11 60 -1 68 -15 11 -24 10 -32 -3z
m31 -9 c3 -5 2 -10 -4 -10 -5 0 -13 5 -16 10 -3 6 -2 10 4 10 5 0 13 -4 16
-10z"/>
<path d="M760 815 l-25 -14 28 -1 c17 0 27 5 27 15 0 18 1 18 -30 0z"/>
<path d="M2100 815 c0 -10 10 -15 33 -15 l32 1 -25 14 c-32 18 -40 18 -40 0z"/>
<path d="M2500 815 c-7 -8 -8 -15 -2 -15 12 0 25 -30 17 -39 -3 -3 -10 1 -15
9 -6 9 -10 10 -10 3 0 -17 20 -27 32 -15 7 7 6 17 -2 32 -13 25 -4 42 11 20 9
-13 10 -13 7 -1 -6 21 -23 24 -38 6z"/>
<path d="M1197 805 c-10 -9 -17 -24 -17 -33 0 -13 -4 -12 -19 7 -11 14 -25 22
-33 18 -12 -4 -13 -16 -6 -68 8 -60 21 -90 33 -77 3 3 1 17 -5 32 -5 15 -10
39 -10 54 1 24 3 23 25 -18 l24 -45 1 42 c0 44 14 64 24 37 3 -9 6 -31 6 -50
0 -19 5 -34 11 -34 14 0 7 108 -8 135 -9 16 -11 16 -26 0z"/>
<path d="M1665 796 c-33 -33 -35 -98 -4 -120 23 -16 44 -12 52 9 4 8 -1 11
-13 8 -28 -7 -47 38 -32 72 11 24 42 35 42 15 0 -5 5 -10 10 -10 18 0 11 29
-10 40 -17 9 -25 6 -45 -14z"/>
<path d="M420 785 c0 -8 4 -15 10 -15 5 0 7 7 4 15 -4 8 -8 15 -10 15 -2 0 -4
-7 -4 -15z"/>
<path d="M521 784 c0 -11 3 -14 6 -6 3 7 2 16 -1 19 -3 4 -6 -2 -5 -13z"/>
<path d="M2360 786 c0 -8 6 -17 13 -19 9 -4 9 -7 -1 -15 -10 -7 -10 -11 2 -21
21 -17 27 1 13 38 -12 32 -27 42 -27 17z"/>
<path d="M555 748 c0 -29 5 -42 20 -49 18 -10 19 -9 3 4 -21 17 -24 31 -5 24
19 -7 16 42 -3 53 -12 7 -15 1 -15 -32z m25 12 c0 -5 -5 -10 -11 -10 -5 0 -7
5 -4 10 3 6 8 10 11 10 2 0 4 -4 4 -10z"/>
<path d="M1052 782 c-26 -8 -26 -6 -17 -89 5 -45 11 -63 21 -63 10 0 13 7 8
25 -4 18 1 33 20 56 29 34 32 49 14 67 -13 13 -12 13 -46 4z m31 -28 c8 -9
-11 -44 -23 -44 -6 0 -10 11 -10 25 0 23 18 34 33 19z"/>
<path d="M1745 738 c-17 -58 -19 -88 -6 -88 5 0 12 20 15 45 10 61 24 65 28 8
l3 -48 23 39 c30 50 40 39 17 -19 -17 -45 -14 -68 5 -49 5 5 16 36 24 68 18
69 7 90 -30 55 l-21 -20 -6 31 c-10 47 -34 37 -52 -22z"/>
<path d="M2320 780 c-19 -12 -21 -60 -3 -53 19 7 16 -7 -4 -24 -16 -13 -16
-13 4 -3 18 8 22 17 19 43 -2 17 1 35 8 39 6 4 7 8 1 8 -5 0 -17 -5 -25 -10z"/>
<path d="M496 753 c-4 -10 -2 -22 7 -28 7 -5 16 -17 20 -25 3 -8 4 0 3 18 -3
41 -20 61 -30 35z"/>
<path d="M815 758 c-10 -25 -1 -43 20 -43 10 0 27 -13 39 -28 19 -26 19 -30 5
-55 -8 -15 -25 -28 -37 -30 -16 -2 -22 -10 -22 -28 0 -13 5 -24 10 -24 6 0 10
5 10 11 0 6 14 22 30 36 24 19 30 33 30 62 0 38 -23 71 -49 71 -6 0 -16 10
-20 23 -8 19 -10 20 -16 5z"/>
<path d="M946 755 c-21 -22 -31 -82 -17 -111 9 -21 17 -25 49 -22 l37 3 0 52
c-1 36 -6 58 -19 72 -23 25 -30 26 -50 6z m44 -34 c13 -26 13 -54 -2 -69 -16
-16 -48 3 -48 29 0 25 17 59 30 59 5 0 14 -9 20 -19z"/>
<path d="M436 752 c-2 -4 -3 -28 -2 -54 2 -27 -1 -48 -6 -48 -5 0 -2 -7 6 -15
9 -9 20 -23 25 -32 10 -18 10 -18 55 35 18 21 18 22 -5 47 -29 30 -36 31 -44
5 -3 -11 -11 -20 -16 -20 -15 0 -10 36 6 50 8 7 15 16 15 20 0 11 -28 21 -34
12z m58 -88 c9 -24 -12 -47 -29 -31 -9 9 -9 16 -1 29 14 22 22 23 30 2z"/>
<path d="M781 748 c-1 -10 -6 -18 -11 -18 -20 0 -60 -53 -60 -79 0 -35 26 -71
51 -71 10 0 19 -6 19 -14 0 -8 5 -18 10 -21 6 -4 10 7 10 25 0 23 -4 31 -14
27 -23 -9 -56 22 -56 52 0 28 26 61 48 61 16 0 20 13 11 35 -6 17 -8 17 -8 3z"/>
<path d="M2432 748 c-8 -8 -7 -15 4 -25 8 -8 14 -24 14 -36 -1 -22 -1 -22 -20
2 l-20 24 -26 -28 c-20 -22 -23 -30 -12 -36 11 -7 10 -11 -2 -19 -12 -7 -12
-12 -2 -22 9 -9 12 -8 12 8 1 17 3 17 21 -6 21 -24 21 -24 35 -5 7 11 18 25
23 32 7 8 7 13 -2 16 -9 4 -9 7 0 17 9 10 9 18 1 33 -7 14 -7 22 1 27 9 5 8
10 -2 18 -10 8 -16 9 -25 0z m-6 -82 c12 -13 10 -46 -3 -46 -13 0 -32 31 -27
44 8 20 12 20 30 2z"/>
<path d="M367 732 c6 -4 9 -24 8 -44 -2 -21 1 -40 6 -43 5 -4 6 1 3 9 -3 9 -2
16 4 16 6 0 12 -6 15 -12 2 -7 3 7 3 32 -1 40 -4 45 -25 47 -13 0 -19 -2 -14
-5z m33 -32 c0 -5 -4 -10 -10 -10 -5 0 -10 5 -10 10 0 6 5 10 10 10 6 0 10 -4
10 -10z"/>
<path d="M2496 723 c7 -8 14 -18 14 -23 0 -5 -7 -15 -14 -23 -13 -13 -12 -14
11 -14 19 0 22 2 12 9 -11 8 -11 11 -1 15 10 4 10 8 1 20 -10 11 -10 16 0 23
9 5 4 8 -12 8 -23 0 -24 -2 -11 -15z"/>
<path d="M1898 703 c-30 -32 -44 -74 -33 -100 7 -16 9 -14 14 7 4 16 15 26 30
28 22 3 23 1 18 -28 -5 -23 -3 -30 6 -28 30 10 34 148 3 148 -7 0 -24 -12 -38
-27z m42 -23 c0 -13 -7 -20 -20 -20 -23 0 -26 10 -8 28 18 18 28 15 28 -8z"/>
<path d="M2095 720 c-4 -6 3 -30 14 -52 19 -39 19 -44 5 -66 -15 -22 -14 -24
3 -20 34 6 84 126 56 135 -6 2 -13 -8 -15 -23 -4 -39 -27 -42 -34 -5 -7 35
-19 47 -29 31z"/>
<path d="M1986 683 c-10 -66 -7 -103 9 -103 10 0 15 10 15 31 0 39 23 34 30
-7 3 -16 10 -27 15 -24 12 6 8 50 -6 67 -7 8 -5 20 7 38 9 14 13 29 9 33 -4 4
-10 1 -12 -5 -3 -7 -13 -23 -24 -35 l-20 -23 4 33 c5 46 -19 41 -27 -5z"/>
<path d="M2361 704 c0 -11 3 -14 6 -6 3 7 2 16 -1 19 -3 4 -6 -2 -5 -13z"/>
<path d="M563 677 c21 -17 23 -31 3 -24 -11 4 -14 -1 -13 -20 1 -15 8 -28 15
-29 7 -1 8 0 2 3 -15 7 -12 26 4 20 24 -9 16 42 -8 54 -19 9 -19 9 -3 -4z"/>
<path d="M2318 679 c-10 -5 -18 -14 -18 -19 0 -5 8 -7 18 -4 16 5 16 5 0 -6
-23 -14 -23 -31 -1 -23 12 5 15 2 10 -10 -4 -11 -2 -14 9 -10 9 3 11 10 6 17
-4 6 -8 23 -7 39 0 15 1 27 0 27 0 0 -8 -5 -17 -11z"/>
<path d="M367 613 c3 -7 10 -13 16 -13 7 0 7 -4 -1 -12 -10 -10 -15 -10 -22 2
-5 8 -10 11 -10 5 0 -5 4 -16 9 -24 8 -12 12 -12 26 2 9 9 13 22 9 28 -3 6 -1
15 6 19 8 5 4 8 -12 7 -16 -1 -24 -7 -21 -14z"/>
<path d="M516 621 c-4 -7 -5 -15 -2 -18 9 -9 19 4 14 18 -4 11 -6 11 -12 0z"/>
<path d="M2510 609 c-14 -25 7 -60 21 -37 5 7 9 18 9 23 0 6 -4 3 -10 -5 -14
-22 -23 -5 -10 19 6 12 8 21 6 21 -3 0 -10 -9 -16 -21z"/>
<path d="M420 604 c0 -10 5 -26 10 -34 8 -11 9 -7 4 15 -8 37 -14 45 -14 19z"/>
<path d="M2460 608 c0 -9 -3 -25 -7 -35 -7 -17 -6 -17 11 -1 13 13 15 22 7 35
-9 16 -10 16 -11 1z"/>
</g>
</svg>
