<?xml version="1.0" standalone="no"?>
<!DOCTYPE svg PUBLIC "-//W3C//DTD SVG 20010904//EN"
 "http://www.w3.org/TR/2001/REC-SVG-20010904/DTD/svg10.dtd">
<svg version="1.0" xmlns="http://www.w3.org/2000/svg"
 width="200.000000pt" height="200.000000pt" viewBox="0 0 200.000000 200.000000"
 preserveAspectRatio="xMidYMid meet">
<metadata>
Created by potrace 1.11, written by Peter Selinger 2001-2013
</metadata>
<g transform="translate(0.000000,200.000000) scale(0.100000,-0.100000)"
fill="#000000" stroke="none">
<path d="M250 1155 c0 -744 2 -845 15 -845 8 0 15 -5 15 -11 0 -5 4 -7 10 -4
5 3 10 2 10 -2 0 -5 14 -17 30 -26 17 -10 30 -15 30 -12 0 3 10 -3 22 -15 20
-18 27 -21 44 -19 4 0 10 -4 13 -9 7 -12 192 -120 212 -124 8 -2 16 -6 19 -9
12 -15 149 -62 185 -64 22 -1 48 -6 57 -10 16 -6 106 -3 193 8 58 7 127 26
153 43 12 8 22 12 22 9 0 -8 144 66 151 77 3 5 9 9 13 9 10 -1 76 32 76 39 0
4 6 7 13 7 15 1 180 92 188 105 3 5 10 9 15 9 5 -1 10 359 12 844 l2 845 -750
0 -750 0 0 -845z m1380 666 c0 -34 -10 -52 -76 -133 -42 -51 -79 -97 -84 -101
-4 -5 -17 -4 -28 2 -17 9 -23 7 -36 -11 -13 -18 -17 -19 -33 -7 -10 7 -20 14
-21 15 -2 2 2 19 9 39 11 31 11 37 -1 45 -25 16 -58 11 -73 -10 -13 -18 -17
-19 -45 -7 -23 10 -29 16 -22 27 20 31 11 58 -22 69 -28 10 -35 9 -43 -4 -23
-39 -31 -43 -62 -38 -30 5 -31 6 -22 36 17 61 14 67 -41 67 -48 0 -49 -1 -55
-33 -6 -32 -9 -33 -47 -31 -32 1 -48 10 -82 43 -23 22 -45 41 -50 41 -4 0 -7
-12 -6 -27 4 -58 2 -63 -32 -63 -18 0 -51 -11 -73 -25 -63 -39 -67 -36 -63 50
2 41 1 75 0 75 -7 0 -42 -45 -82 -104 -26 -38 -40 -69 -40 -90 0 -20 -11 -44
-30 -67 -41 -50 -53 -110 -33 -167 18 -55 10 -112 -18 -119 -22 -6 -22 -7 -9
-47 55 -170 60 -234 36 -460 -11 -111 -11 -119 6 -130 10 -6 18 -21 18 -35 0
-26 34 -94 64 -128 23 -27 17 -43 -39 -106 -37 -42 -52 -43 -99 -6 l-26 20 0
730 0 729 630 0 630 0 0 -39z m-1025 -76 c0 -36 -4 -67 -10 -69 -5 -2 -28 -12
-50 -21 -35 -15 -38 -15 -26 -1 7 9 11 16 7 16 -8 0 18 52 52 103 13 20 25 37
26 37 0 0 1 -29 1 -65z m589 -5 c33 -12 32 -32 -2 -95 -17 -32 -33 -50 -45
-49 -50 4 -48 2 -33 37 8 17 22 51 32 75 9 23 18 42 20 42 1 0 14 -4 28 -10z
m-332 -35 c15 -29 15 -35 2 -45 -8 -7 -14 -19 -14 -26 0 -8 -2 -14 -4 -14 -2
0 -12 -3 -21 -7 -13 -5 -16 -2 -12 13 3 10 8 40 12 67 3 26 9 47 13 47 4 0 15
-16 24 -35z m198 -95 c70 -23 88 -39 95 -88 3 -26 3 -56 -2 -68 l-8 -21 -80
23 c-44 12 -73 23 -65 24 8 1 20 3 27 4 13 1 63 64 63 78 0 4 -4 8 -10 8 -5 0
-10 -6 -10 -14 0 -8 -4 -17 -9 -20 -4 -3 -6 6 -3 19 5 28 3 29 -33 13 -30 -14
-34 -32 -4 -23 20 7 20 6 4 -19 -26 -39 -38 -32 -33 19 3 25 2 45 -3 45 -5 0
-4 9 3 20 8 12 19 18 28 14 8 -3 26 -10 40 -14z m384 -38 c4 -7 -110 -157
-167 -219 l-20 -23 -18 28 c-9 16 -28 38 -43 49 -23 18 -26 28 -25 77 1 49 4
55 17 44 13 -11 14 -10 4 9 -12 21 -11 22 16 12 15 -5 49 -27 76 -49 52 -43
68 -43 86 1 24 57 61 92 74 71z m-69 -12 c9 -15 -34 -81 -48 -74 -7 4 -20 14
-30 22 -17 15 -16 17 10 38 30 25 58 30 68 14z m255 -584 l0 -583 -72 -33
c-40 -18 -138 -69 -218 -112 -192 -103 -239 -118 -357 -118 -114 0 -179 20
-308 92 -49 28 -92 53 -94 54 -5 4 73 103 82 104 4 0 15 -16 24 -36 16 -32 21
-35 49 -31 26 4 33 2 37 -14 3 -11 13 -18 24 -18 15 1 15 2 2 6 -13 3 -16 16
-16 52 0 30 -6 59 -16 74 l-16 25 50 12 c56 14 59 12 61 -21 4 -68 -3 -110
-22 -129 -14 -14 -16 -20 -6 -20 8 0 17 7 20 16 5 12 14 14 37 9 46 -10 138 4
158 24 9 9 25 28 34 41 15 22 18 22 34 8 17 -15 117 -68 128 -68 10 0 54 78
66 118 l12 41 19 -25 c24 -29 37 -22 61 33 18 42 61 239 77 348 9 67 12 217 4
185 -3 -9 -43 -35 -91 -59 -52 -25 -83 -36 -80 -28 3 8 1 19 -4 24 -7 7 4 23
33 48 31 28 35 34 13 20 -16 -9 -44 -28 -62 -41 -31 -24 -32 -24 -42 -5 -9 16
-3 28 35 70 40 44 49 50 62 39 13 -11 14 -11 8 0 -5 9 0 22 15 38 26 28 51 33
26 6 -30 -32 -18 -37 16 -6 l32 29 -34 -37 c-19 -21 -32 -41 -28 -44 19 -19
127 136 132 189 1 20 2 37 0 37 -2 0 -12 -19 -24 -42 -26 -54 -80 -119 -81
-97 0 9 -13 28 -30 42 -16 15 -30 33 -30 40 0 9 3 9 9 -1 6 -11 13 -7 30 14
11 14 21 36 21 47 0 20 39 87 51 87 3 0 11 -15 17 -32 10 -33 10 -33 5 7 -5
39 -1 46 62 123 37 45 71 82 76 82 5 0 9 -249 9 -584z m-1148 491 c-2 -37 2
-79 11 -105 8 -23 13 -42 11 -42 -13 0 -56 96 -55 123 2 75 5 87 21 87 12 0
14 -11 12 -63z m82 11 c-5 -18 -9 -70 -9 -115 0 -44 -4 -79 -9 -76 -18 12 -46
91 -46 135 0 41 2 46 20 41 14 -4 20 0 20 11 0 14 -11 21 -32 17 -5 0 -8 4 -8
9 0 6 16 10 36 10 36 0 36 0 28 -32z m62 -66 c-18 -43 -38 -86 -44 -97 -12
-20 -13 -11 -2 125 4 51 9 56 43 52 l34 -4 -31 -76z m134 72 c0 -9 -106 -137
-135 -164 -25 -22 -27 -22 -21 -5 17 43 57 151 61 163 4 12 95 18 95 6z m139
-10 c18 -6 4 -22 -84 -93 -101 -83 -146 -111 -175 -110 -22 0 -23 1 -6 8 14 5
16 10 7 15 -8 5 -3 17 20 39 17 18 51 60 75 94 l45 62 52 -5 c29 -3 58 -8 66
-10z m154 -33 c43 -10 80 -21 83 -23 6 -7 -70 -171 -96 -208 -22 -31 -26 -45
-10 -35 6 4 23 29 39 56 l28 50 32 -26 c17 -15 31 -32 31 -38 0 -7 -23 -41
-52 -75 -49 -61 -52 -63 -61 -40 -4 12 -17 33 -28 45 -17 18 -19 25 -9 43 14
26 3 81 -35 166 -14 31 -22 61 -18 67 3 5 1 7 -5 3 -6 -3 -14 -2 -17 4 -4 6
-1 9 7 8 7 -2 12 3 11 10 -4 16 8 15 100 -7z m153 -67 c19 -19 34 -43 34 -52
0 -10 -14 -35 -31 -55 l-32 -38 -33 32 c-18 18 -30 37 -26 43 3 6 7 16 7 21 1
24 28 85 37 85 6 0 26 -16 44 -36z m-336 -39 c0 -2 -3 -10 -6 -19 -5 -12 -10
-13 -25 -5 -11 5 -18 13 -15 17 4 8 46 14 46 7z m-385 -15 c3 -5 1 -10 -4 -10
-6 0 -11 5 -11 10 0 6 2 10 4 10 3 0 8 -4 11 -10z m106 -66 c24 -2 50 -5 56
-6 10 -1 11 -38 6 -164 -5 -139 -3 -173 12 -229 l17 -65 -28 -43 c-16 -23 -48
-78 -71 -122 l-42 -80 -31 69 c-30 65 -32 76 -26 145 3 42 9 181 12 309 l7
233 22 -21 c13 -13 41 -23 66 -26z m799 22 c0 -2 -8 -10 -17 -17 -16 -13 -17
-12 -4 4 13 16 21 21 21 13z m-20 -93 l32 -26 -34 -26 c-18 -14 -60 -51 -93
-83 -58 -55 -80 -62 -80 -26 0 18 66 111 73 103 3 -3 12 1 21 8 9 6 -4 -12
-28 -41 -24 -29 -40 -56 -36 -60 3 -4 16 5 27 21 11 15 24 27 29 27 16 0 54
43 41 48 -7 2 -10 8 -6 13 3 5 -2 9 -10 9 -20 0 -20 6 2 35 22 31 24 31 62 -2z
m-364 -60 c1 -15 -4 -19 -16 -16 -24 6 -33 -12 -15 -27 13 -10 19 -10 33 4 25
22 32 20 32 -6 0 -13 -14 -39 -31 -58 -17 -19 -38 -45 -47 -58 l-15 -23 -22
33 c-26 37 -22 56 29 137 28 44 50 50 52 14z m-199 -53 c57 -34 59 -53 14
-112 -44 -59 -81 -129 -81 -153 0 -8 -9 -15 -20 -15 -16 0 -20 7 -20 38 0 20
4 54 9 75 6 23 5 37 -1 37 -5 0 -6 5 -2 11 4 8 9 8 17 0 7 -7 7 -21 -1 -48 -8
-26 -8 -39 -1 -44 8 -5 8 -8 0 -13 -13 -8 -15 -26 -2 -26 4 0 20 27 35 60 15
32 31 62 36 65 6 4 10 14 9 23 0 11 -2 13 -6 4 -4 -10 -8 -9 -19 5 -12 16 -13
15 -14 -17 -1 -19 -5 -44 -10 -55 -6 -13 -7 -2 -3 29 5 43 4 49 -11 43 -13 -5
-15 -2 -11 16 5 19 12 62 14 90 2 13 36 7 68 -13z m114 -122 c11 -21 -15 -68
-37 -68 -8 0 -14 -8 -14 -17 -1 -10 -12 -31 -26 -48 l-26 -30 21 42 c31 62 28
73 -15 63 l-35 -8 17 26 c9 15 28 42 41 60 24 32 26 33 45 15 11 -10 24 -26
29 -35z m312 8 c15 -11 27 -23 27 -27 0 -3 -19 -19 -41 -34 -23 -15 -38 -22
-35 -16 4 6 2 11 -4 11 -6 0 -13 -8 -17 -17 -3 -10 -36 -50 -72 -88 -36 -39
-75 -87 -86 -108 -11 -20 -22 -37 -26 -37 -3 0 -14 10 -25 22 -10 12 -14 19
-9 16 6 -3 11 5 11 19 2 24 2 24 -19 6 l-21 -18 21 30 c67 96 161 184 182 170
5 -3 11 2 15 10 7 20 -3 19 -44 -6 -39 -24 -40 -26 33 63 42 52 45 52 110 4z
m130 -48 c-13 -22 -14 -50 -1 -42 7 5 8 3 3 -6 -4 -7 -8 -29 -7 -49 1 -24 -1
-31 -7 -22 -7 11 -12 9 -22 -10 -17 -31 -49 -100 -49 -106 0 -14 30 22 31 36
0 9 3 11 5 5 3 -6 -4 -35 -15 -65 -11 -29 -19 -55 -16 -57 9 -9 24 10 30 39 4
17 9 28 12 25 9 -8 -29 -116 -41 -117 -6 -1 -17 -1 -23 0 -18 2 -16 -14 2 -29
13 -11 19 -10 34 7 10 11 22 29 25 41 4 12 11 20 15 17 5 -2 6 7 3 20 -3 20
-1 24 12 19 9 -4 15 -13 12 -23 -28 -99 -28 -99 -56 -105 -36 -7 -103 12 -96
27 25 62 86 263 92 305 5 44 4 52 -9 52 -11 0 -20 -15 -28 -42 -23 -89 -72
-234 -90 -270 -21 -40 -29 -44 -57 -27 -15 9 -11 22 46 138 35 70 64 138 65
152 2 24 41 72 50 62 3 -2 22 5 44 16 46 24 46 24 36 9z m-103 -12 c0 -3 -4
-8 -10 -11 -5 -3 -10 -1 -10 4 0 6 5 11 10 11 6 0 10 -2 10 -4z m-30 -26 c0
-5 -5 -10 -11 -10 -5 0 -7 5 -4 10 3 6 8 10 11 10 2 0 4 -4 4 -10z m-434 -52
c-14 -24 -26 -41 -27 -38 0 3 -2 16 -5 30 -3 19 -2 21 6 10 8 -12 10 -13 10
-1 0 16 31 54 38 47 2 -3 -8 -24 -22 -48z m400 15 c-10 -10 -19 5 -10 18 6 11
8 11 12 0 2 -7 1 -15 -2 -18z m-29 -25 c-3 -8 -6 -5 -6 6 -1 11 2 17 5 13 3
-3 4 -12 1 -19z m27 -49 c-25 -62 -73 -159 -93 -188 -7 -11 -12 -4 -21 30 -6
24 -18 54 -27 67 -15 24 -12 52 6 52 14 0 27 -49 31 -115 1 -18 2 -17 15 5 8
14 14 33 15 43 0 38 84 187 97 174 1 -2 -9 -32 -23 -68z m-44 15 c0 -13 -4
-24 -10 -24 -5 0 -10 14 -10 31 0 17 4 28 10 24 6 -3 10 -17 10 -31z m-24 -62
c-9 -8 -13 0 -19 38 l-6 35 15 -34 c8 -18 13 -36 10 -39z m-376 38 c0 -11 -6
-20 -14 -20 -8 0 -33 -21 -56 -47 -55 -63 -47 -39 10 31 49 60 60 67 60 36z
m40 1 c-15 -30 -30 -35 -30 -11 0 12 4 19 9 15 5 -3 12 -1 16 5 11 18 16 10 5
-9z m587 -3 c-3 -8 -6 -5 -6 6 -1 11 2 17 5 13 3 -3 4 -12 1 -19z m-271 -59
c4 -24 4 -42 1 -39 -11 10 -33 86 -29 99 7 21 20 -7 28 -60z m140 -31 c-14
-46 -34 -100 -45 -121 -19 -36 -19 -38 0 -47 12 -7 16 -16 12 -28 -6 -15 -5
-15 10 -4 20 17 77 7 77 -14 0 -22 -49 -114 -61 -114 -16 0 -92 41 -115 62
l-22 19 49 71 c33 48 59 104 81 169 39 119 49 125 14 7z m121 50 c-3 -8 -6 -5
-6 6 -1 11 2 17 5 13 3 -3 4 -12 1 -19z m-317 -59 c6 -11 8 -34 5 -51 -5 -21
-4 -28 4 -24 7 4 11 -1 11 -13 0 -36 -17 -31 -29 8 -6 21 -18 44 -26 51 -11 9
-12 17 -4 31 13 25 26 24 39 -2z m-152 -62 c4 -31 -12 -36 -28 -8 -15 29 -12
43 8 39 10 -2 18 -14 20 -31z m-40 -38 c-7 -5 -16 -9 -19 -9 -12 0 -16 37 -6
55 9 17 11 16 24 -10 13 -23 13 -29 1 -36z m171 19 c15 -42 14 -55 -3 -55 -16
0 -33 38 -34 74 -1 31 24 19 37 -19z m-208 -20 c1 -7 1 -16 0 -20 0 -5 4 -8
11 -8 6 0 9 -2 6 -5 -11 -11 -38 8 -38 26 0 21 19 27 21 7z m75 -7 c-3 -5 -15
-11 -26 -14 -17 -4 -19 -3 -9 9 12 15 44 20 35 5z m102 -84 c4 -69 3 -76 -17
-86 -19 -11 -21 -9 -21 13 0 18 4 24 15 20 10 -4 15 0 15 15 0 12 -5 21 -11
21 -5 0 -7 -4 -4 -10 3 -5 1 -10 -4 -10 -12 0 -15 71 -5 108 12 41 27 7 32
-71z m92 78 c0 -15 -24 -53 -32 -49 -5 3 -17 -5 -28 -18 l-19 -23 -1 28 c0 15
3 26 8 26 24 -4 41 4 47 21 5 17 25 29 25 15z m-300 -9 c0 -2 -8 -10 -17 -17
-16 -13 -17 -12 -4 4 13 16 21 21 21 13z m343 -15 c17 -6 16 -10 -10 -47 -15
-21 -37 -57 -48 -78 -22 -43 -45 -61 -92 -70 -27 -4 -33 -2 -33 12 0 9 15 24
33 32 24 11 33 23 35 45 5 42 34 75 55 63 19 -10 37 -3 37 14 0 6 -6 5 -16 -2
-13 -12 -14 -10 -3 13 13 29 14 29 42 18z m-309 -15 c16 4 25 0 30 -11 5 -14
2 -16 -15 -12 -12 3 -32 1 -43 -5 -19 -10 -20 -10 -7 5 9 12 10 17 2 17 -7 0
-9 5 -5 12 6 9 9 9 12 0 2 -7 13 -10 26 -6z m542 -12 c-4 -16 -3 -23 3 -19 7
3 8 0 5 -10 -5 -11 -10 -13 -19 -5 -10 8 -10 16 -1 35 14 32 20 32 12 -1z
m-424 -109 c-7 -59 -8 -60 -37 -57 -17 2 -31 5 -33 7 -7 7 13 30 27 30 8 0 16
6 19 13 3 9 -3 12 -14 10 -14 -2 -20 4 -22 26 -3 22 4 34 30 56 l33 28 3 -26
c1 -15 -1 -54 -6 -87z m-172 -21 c0 -21 -17 -34 -45 -34 -7 0 -18 14 -24 30
-6 18 -6 28 -1 25 6 -4 10 -1 10 4 0 6 -6 11 -12 12 -7 0 1 7 17 14 28 12 31
11 42 -8 7 -12 12 -32 13 -43z"/>
<path d="M1160 1678 c0 -4 7 -8 15 -8 8 0 15 4 15 8 0 5 -7 9 -15 9 -8 0 -15
-4 -15 -9z"/>
<path d="M1090 1529 c0 -5 5 -7 10 -4 6 3 10 8 10 11 0 2 -4 4 -10 4 -5 0 -10
-5 -10 -11z"/>
<path d="M1072 1488 c-18 -18 -14 -28 8 -28 11 0 20 6 20 14 0 21 -15 27 -28
14z"/>
<path d="M1198 1509 c-10 -5 -18 -15 -18 -21 0 -9 3 -9 12 0 7 7 17 12 23 12
5 0 3 -4 -5 -10 -8 -5 -11 -12 -7 -16 9 -9 37 15 37 32 0 16 -18 18 -42 3z"/>
<path d="M1244 1425 c3 -8 1 -15 -3 -15 -5 0 -11 6 -14 13 -2 6 -8 9 -13 4 -4
-4 0 -15 9 -24 16 -16 18 -16 33 -1 9 9 13 21 10 27 -11 17 -29 13 -22 -4z"/>
<path d="M1330 1535 c7 -8 17 -12 22 -9 6 4 5 10 -3 15 -22 14 -33 10 -19 -6z"/>
<path d="M1437 1324 c-4 -4 -7 -14 -7 -23 0 -11 3 -12 11 -4 6 6 10 16 7 23
-2 6 -7 8 -11 4z"/>
<path d="M1558 1305 c-3 -11 -9 -29 -13 -40 -3 -11 1 -7 10 8 9 16 15 33 12
40 -2 6 -6 3 -9 -8z"/>
<path d="M1463 1265 c-3 -9 -3 -18 0 -21 9 -9 27 6 27 22 0 19 -19 18 -27 -1z"/>
<path d="M1492 1090 c0 -14 2 -19 5 -12 2 6 2 18 0 25 -3 6 -5 1 -5 -13z"/>
<path d="M1310 1040 c0 -5 5 -10 10 -10 6 0 10 5 10 10 0 6 -4 10 -10 10 -5 0
-10 -4 -10 -10z"/>
<path d="M1276 1004 c-8 -22 -1 -28 19 -17 14 8 14 11 2 22 -12 9 -16 8 -21
-5z"/>
<path d="M810 330 c-8 -5 -11 -12 -8 -16 10 -9 38 3 38 16 0 12 -10 13 -30 0z"/>
<path d="M590 1462 c0 -16 32 -12 37 5 3 7 -4 11 -16 10 -12 -1 -21 -7 -21
-15z"/>
<path d="M677 1467 c-7 -19 14 -34 33 -22 15 9 12 28 -4 22 -8 -3 -16 -1 -19
6 -2 6 -6 3 -10 -6z"/>
<path d="M792 1448 c5 -15 28 -18 29 -3 0 6 -7 12 -17 13 -10 3 -15 -1 -12
-10z"/>
<path d="M1030 1377 c0 -19 26 -41 40 -32 12 8 13 35 1 35 -5 0 -16 3 -25 6
-10 4 -16 1 -16 -9z"/>
<path d="M1096 1225 c-11 -8 -17 -18 -13 -21 10 -11 37 4 37 21 0 18 0 18 -24
0z"/>
<path d="M1165 1340 c-3 -5 -4 -14 0 -20 8 -13 35 -1 35 16 0 16 -26 19 -35 4z"/>
<path d="M545 1197 c-4 -10 -3 -23 3 -29 14 -14 42 -3 42 17 0 18 -20 21 -21
3 0 -7 -4 -4 -9 7 -7 19 -8 19 -15 2z"/>
<path d="M558 1078 c-3 -29 -9 -62 -13 -73 -6 -18 -5 -18 7 -4 7 9 19 14 26
12 7 -3 12 4 12 16 0 15 5 19 18 15 12 -4 14 -3 4 4 -9 6 -11 20 -7 46 5 23 3
36 -3 36 -6 0 -13 -15 -15 -32 l-4 -33 -1 33 c-3 51 -19 37 -24 -20z m19 -40
c-3 -8 -6 -5 -6 6 -1 11 2 17 5 13 3 -3 4 -12 1 -19z"/>
<path d="M560 935 c0 -18 -16 -20 -23 -2 -3 7 -6 5 -6 -6 -1 -23 28 -34 40
-16 12 19 11 39 -1 39 -5 0 -10 -7 -10 -15z"/>
<path d="M596 941 c-4 -5 -1 -13 5 -16 13 -9 4 -83 -18 -138 -21 -51 -26 -42
-7 12 8 24 12 53 8 64 -7 21 -7 21 -25 -2 -11 -13 -19 -28 -19 -35 0 -6 7 -2
15 8 15 20 15 20 15 0 0 -10 -11 -43 -25 -73 -14 -30 -24 -56 -21 -58 2 -2 16
7 31 21 34 31 65 113 65 171 0 42 -12 66 -24 46z"/>
<path d="M615 803 c-8 -31 -4 -34 16 -13 12 13 13 19 3 28 -9 8 -14 5 -19 -15z"/>
<path d="M522 665 c4 -28 38 -33 38 -6 0 12 -4 21 -10 21 -5 0 -10 -6 -10 -12
0 -9 -4 -8 -11 2 -8 12 -10 12 -7 -5z"/>
<path d="M1320 1168 c0 -4 7 -8 15 -8 8 0 15 4 15 8 0 5 -7 9 -15 9 -8 0 -15
-4 -15 -9z"/>
<path d="M754 1039 c-3 -6 0 -16 6 -25 10 -11 16 -12 26 -3 8 6 14 15 14 19 0
12 -39 19 -46 9z"/>
<path d="M860 946 c0 -8 5 -18 11 -22 13 -8 46 22 35 33 -4 4 -11 1 -16 -7 -7
-10 -10 -11 -10 -2 0 6 -4 12 -10 12 -5 0 -10 -6 -10 -14z"/>
<path d="M1180 960 c0 -6 -5 -8 -11 -4 -7 4 -10 1 -7 -7 7 -20 38 -24 38 -5 0
8 -4 18 -10 21 -5 3 -10 1 -10 -5z"/>
<path d="M1132 878 c-7 -7 -12 -8 -12 -3 0 5 -16 -6 -35 -25 -41 -40 -48 -65
-7 -29 l27 24 -24 -27 c-13 -15 -27 -25 -31 -23 -4 2 -21 -10 -38 -28 -24 -25
-28 -34 -18 -44 7 -6 17 -8 22 -5 19 13 137 162 132 167 -2 3 -10 -1 -16 -7z
m-92 -111 c0 -2 -10 -12 -22 -23 l-23 -19 19 23 c18 21 26 27 26 19z"/>
<path d="M1196 695 c-9 -9 -14 -21 -10 -26 3 -5 -6 -30 -20 -55 -33 -58 -33
-65 -1 -28 26 30 62 111 53 120 -3 3 -13 -2 -22 -11z"/>
<path d="M1178 452 c-14 -23 -15 -32 -5 -51 16 -32 31 -32 34 -1 2 21 1 22 -5
6 -8 -18 -9 -19 -15 -2 -4 10 -3 24 1 30 14 17 22 46 14 46 -4 0 -15 -13 -24
-28z"/>
<path d="M723 358 c2 -7 10 -13 17 -13 7 0 15 6 18 13 2 7 -5 12 -18 12 -13 0
-20 -5 -17 -12z"/>
</g>
</svg>
