<?xml version="1.0" standalone="no"?>
<!DOCTYPE svg PUBLIC "-//W3C//DTD SVG 20010904//EN"
 "http://www.w3.org/TR/2001/REC-SVG-20010904/DTD/svg10.dtd">
<svg version="1.0" xmlns="http://www.w3.org/2000/svg"
 width="512.000000pt" height="512.000000pt" viewBox="0 0 512.000000 512.000000"
 preserveAspectRatio="xMidYMid meet">
<metadata>
Created by potrace 1.14, written by Peter Selinger 2001-2017
</metadata>
<g transform="translate(0.000000,512.000000) scale(0.100000,-0.100000)"
fill="#000000" stroke="none">
<path d="M279 4323 c-1 -16 -2 -55 -3 -88 0 -33 -5 -66 -10 -74 -6 -10 -6 -12
2 -7 15 9 13 -353 -2 -373 -8 -11 -8 -13 0 -8 14 8 14 -210 0 -232 -6 -9 -5
-12 1 -8 13 8 12 -212 -1 -232 -6 -9 -5 -12 2 -7 13 8 11 -72 -2 -93 -6 -10
-5 -12 2 -7 15 9 13 -353 -2 -373 -8 -11 -8 -13 0 -8 14 8 14 -210 0 -232 -6
-9 -5 -12 1 -8 13 8 12 -212 -1 -232 -6 -9 -5 -12 2 -7 13 8 11 -72 -2 -93 -6
-10 -5 -12 2 -7 15 9 13 -353 -2 -373 -8 -11 -8 -13 0 -8 8 5 11 -48 10 -186
-1 -106 0 -201 2 -213 3 -19 10 -21 77 -19 41 1 72 -2 70 -6 -3 -4 5 -9 16
-12 14 -4 18 -10 13 -19 -6 -10 -4 -10 9 1 16 13 14 36 -3 26 -5 -3 -11 -2
-14 3 -2 4 6 8 20 8 14 0 24 -6 24 -14 0 -7 5 -10 10 -7 6 4 7 12 3 18 -4 7 4
4 17 -5 14 -10 34 -23 45 -29 17 -10 17 -8 -2 10 -13 12 -23 23 -23 26 0 9 34
-3 38 -13 2 -7 8 -12 13 -12 4 0 6 6 3 13 -3 8 2 14 10 14 9 0 12 -6 8 -16 -5
-14 -4 -14 12 -2 19 16 58 23 50 10 -2 -4 5 -7 16 -6 11 1 20 5 20 10 0 4 5 5
11 1 8 -4 3 -11 -12 -20 -15 -8 -28 -9 -35 -3 -14 11 -44 1 -44 -14 0 -7 4 -7
12 1 14 14 32 16 23 3 -3 -6 4 -8 16 -6 13 3 30 -1 38 -8 14 -11 15 -10 1 7
-14 18 -13 19 3 13 11 -4 16 -3 12 3 -3 6 -1 10 5 10 6 0 9 4 6 8 -3 5 1 9 9
9 11 0 12 -4 4 -14 -16 -19 1 -16 24 5 19 16 20 16 8 -5 -14 -27 -14 -45 0
-21 6 11 16 15 27 11 15 -6 16 -5 2 13 -14 17 -13 18 1 7 9 -7 18 -11 20 -8 3
2 5 -13 5 -33 0 -20 -5 -40 -10 -44 -8 -6 -8 -8 0 -8 15 0 15 -230 0 -230 -6
0 -4 -5 4 -10 13 -8 13 -13 2 -31 -8 -11 -9 -18 -3 -14 16 9 14 -78 -1 -94 -8
-9 -9 -12 -1 -7 8 4 11 -14 11 -63 0 -51 4 -76 17 -93 10 -13 15 -16 12 -6 -5
13 0 16 23 14 16 -1 32 -5 36 -9 4 -3 -3 -5 -14 -2 -12 2 -24 0 -27 -5 -6 -10
66 -3 74 7 3 4 13 9 21 11 11 3 10 -2 -4 -17 -11 -12 -14 -21 -8 -21 6 0 13 6
15 13 4 9 8 8 17 -3 9 -12 10 -11 6 6 -4 14 -2 21 8 21 9 0 13 -4 11 -8 -3 -4
2 -9 10 -12 9 -4 12 -1 9 7 -3 7 2 13 10 13 8 0 12 -6 10 -12 -3 -8 7 -10 31
-9 20 2 33 -1 30 -5 -3 -5 6 -4 19 2 13 7 23 14 21 18 -2 3 3 6 11 6 8 0 13
-5 10 -12 -3 -8 13 -11 49 -11 29 1 53 5 52 10 -3 16 32 14 45 -2 11 -13 11
-15 -2 -7 -8 4 -12 4 -7 0 10 -11 37 -15 37 -6 0 4 -6 13 -12 21 -11 12 -10
12 5 1 12 -10 17 -10 17 -2 0 8 4 8 14 -1 8 -7 12 -16 10 -19 -2 -3 15 -5 36
-4 31 1 40 -2 41 -14 0 -14 1 -14 7 -1 10 22 36 25 28 3 -5 -16 -4 -16 9 1 13
18 15 18 21 2 5 -14 9 -15 15 -5 13 21 3 25 -59 24 -48 -1 -59 2 -55 13 4 10
8 11 13 2 6 -9 9 -9 15 -1 5 9 10 9 21 0 11 -9 14 -8 14 2 0 12 2 12 9 0 7
-11 9 -11 14 0 5 12 6 12 6 0 1 -11 4 -11 18 0 11 10 14 10 9 2 -5 -9 0 -13
14 -13 14 0 19 4 14 13 -5 8 -2 8 9 -2 14 -11 17 -11 17 0 0 11 2 11 10 -1 8
-13 11 -13 19 -1 7 11 11 8 17 -10 4 -13 7 -28 6 -32 -1 -5 2 -6 7 -3 5 4 8
18 5 32 -4 22 -3 23 10 12 7 -7 12 -16 10 -19 -2 -4 4 -13 14 -20 15 -13 16
-12 3 4 -10 13 -10 17 -1 17 9 0 9 4 -1 18 -13 16 -12 16 4 3 15 -12 20 -12
26 -2 6 9 12 4 19 -17 6 -17 7 -34 4 -38 -4 -5 0 -3 9 4 9 6 20 8 24 4 5 -4 5
-1 1 6 -4 7 -10 10 -14 8 -4 -2 -8 7 -9 21 -1 19 1 22 8 12 8 -12 10 -12 19 1
5 8 10 10 10 5 0 -6 -4 -15 -9 -20 -6 -6 -4 -15 5 -23 15 -13 19 -6 15 25 -3
21 7 15 23 -14 17 -32 22 -13 5 20 -9 19 -8 20 3 6 7 -9 16 -16 20 -15 3 1 10
-3 15 -8 5 -6 2 -6 -7 -1 -9 5 -12 5 -7 -1 5 -5 13 -10 18 -10 5 -1 10 -2 12
-4 7 -6 36 -7 33 -1 -3 4 8 12 25 18 16 6 27 7 23 2 -3 -5 -1 -9 4 -9 17 0 22
13 9 29 -11 14 -10 14 6 2 11 -8 15 -21 12 -32 -7 -20 18 -28 30 -10 3 6 14 8
25 6 12 -2 18 0 15 5 -6 10 -24 8 -43 -4 -7 -4 -16 -5 -19 -2 -4 3 -1 6 5 6 6
0 9 10 7 22 -4 20 -4 21 12 5 16 -15 18 -15 35 0 10 9 18 11 18 5 0 -6 -4 -12
-10 -14 -5 -2 0 -14 11 -28 16 -21 18 -21 13 -5 -6 20 -5 20 10 1 9 -11 16
-14 16 -7 0 7 5 9 10 6 6 -3 10 -1 10 5 0 7 -7 9 -16 6 -8 -3 -12 -2 -9 4 3 5
-4 7 -15 5 -11 -2 -18 0 -15 6 4 5 10 7 15 4 5 -3 11 3 13 12 4 17 5 17 6 1 1
-22 17 -23 29 -2 8 15 10 15 15 0 4 -10 12 -13 23 -9 12 4 15 2 12 -8 -3 -8
-15 -13 -26 -13 -12 1 -22 -3 -22 -8 0 -5 6 -8 13 -5 6 2 19 1 28 -4 12 -6 21
-3 30 9 13 15 12 16 -3 3 -12 -9 -18 -10 -18 -2 0 6 5 11 11 11 5 0 8 4 5 9
-3 5 1 14 8 20 10 9 16 9 21 1 4 -6 3 -9 -2 -8 -4 2 -8 -1 -8 -7 0 -5 5 -8 10
-7 32 11 55 11 55 0 0 -9 3 -8 10 2 6 10 10 11 10 3 0 -7 4 -13 9 -13 5 0 7
10 5 23 -4 19 -3 19 4 3 10 -23 49 -31 68 -15 9 7 14 8 14 1 0 -15 31 -8 45
11 11 16 13 15 30 -3 18 -20 41 -18 29 2 -5 7 -2 8 7 2 8 -4 28 -10 44 -11 17
-1 49 -4 73 -6 26 -2 42 0 42 7 0 7 3 7 8 1 9 -13 32 -18 32 -7 0 4 -4 13 -10
20 -5 7 -3 6 6 -2 13 -11 14 -18 5 -32 -6 -11 -11 -14 -11 -8 0 5 -11 10 -24
10 -14 0 -22 -4 -20 -8 3 -4 1 -8 -5 -8 -5 0 -12 6 -14 13 -4 9 -6 9 -6 0 -1
-14 38 -38 47 -29 3 3 0 6 -7 6 -7 0 -10 4 -6 10 3 5 12 7 20 4 8 -4 13 -9 11
-13 -2 -3 9 -6 24 -6 16 -1 26 3 24 7 -3 5 -10 6 -15 3 -12 -8 -11 17 2 35 9
13 10 13 6 -2 -4 -10 1 -18 15 -21 11 -3 17 -10 13 -16 -3 -6 -2 -11 3 -11 12
0 26 30 23 50 -1 12 0 12 7 2 12 -17 22 -17 34 0 7 10 9 10 7 -2 -3 -28 1 -38
17 -44 14 -5 15 -4 4 9 -15 18 0 20 19 3 11 -11 11 -9 1 11 -8 15 -8 21 -1 17
15 -10 14 7 -1 24 -11 12 -10 12 5 1 9 -8 16 -21 15 -30 -2 -8 3 -16 10 -17 6
-1 17 -2 23 -3 5 0 8 -5 5 -9 -2 -4 4 -8 14 -8 10 0 17 3 14 7 -2 4 5 10 16
14 11 3 19 9 19 13 -3 19 2 23 15 13 10 -8 16 -9 21 -1 3 6 11 8 16 4 5 -3 7
-10 4 -15 -10 -15 12 -10 25 6 9 11 16 12 25 5 9 -8 15 -8 20 0 4 6 13 7 23 1
9 -4 25 -7 34 -6 10 2 22 -4 27 -13 8 -15 12 -15 23 -3 9 10 10 12 1 7 -7 -4
-13 -2 -13 4 0 7 6 10 13 7 6 -2 11 -12 11 -21 -1 -9 2 -16 7 -16 5 0 9 9 9
20 0 11 4 20 9 20 5 0 8 -12 5 -28 -3 -19 -2 -23 5 -12 5 8 7 18 5 22 -3 4 0
8 6 8 6 0 9 4 5 9 -3 6 4 8 15 6 13 -3 20 2 21 13 0 14 2 14 8 -2 8 -20 41
-31 41 -14 0 6 7 5 16 -3 19 -15 47 -21 38 -8 -3 5 -10 7 -15 3 -6 -3 -5 3 2
14 7 12 17 18 22 15 5 -3 4 -9 -3 -13 -9 -5 -9 -9 -1 -14 6 -4 9 -19 7 -33 -3
-14 -2 -22 2 -18 4 3 8 11 8 16 1 5 2 13 3 17 0 5 26 10 57 11 37 1 54 -1 49
-8 -3 -6 -1 -11 4 -11 14 0 14 15 0 43 -9 19 -8 19 10 -3 10 -13 17 -29 13
-35 -4 -6 -1 -6 9 1 19 14 41 12 47 -5 3 -9 0 -11 -8 -6 -9 6 -11 4 -5 -4 9
-15 22 -4 27 23 3 21 28 35 28 16 0 -6 -4 -8 -10 -5 -6 4 -7 -1 -3 -12 11 -32
14 -34 29 -22 12 9 12 15 2 27 -11 13 -10 15 5 9 10 -4 21 -7 23 -7 3 0 0 -10
-6 -23 -11 -21 -10 -21 4 -3 14 18 14 21 0 37 -12 13 -12 19 -3 25 7 4 10 3 5
-4 -3 -6 2 -16 13 -22 13 -6 18 -17 15 -28 -4 -10 -2 -13 3 -7 4 6 18 10 30 9
12 -1 20 3 17 7 -8 13 10 11 25 -4 8 -6 11 -7 8 -1 -5 8 9 11 43 10 27 -1 47
1 44 5 -2 4 3 10 12 13 8 3 13 9 10 14 -2 4 4 8 15 8 20 0 20 0 0 -16 -18 -14
-18 -16 -3 -30 14 -13 15 -13 10 0 -3 9 5 23 19 34 l25 19 -18 -29 c-18 -29
-18 -29 2 -12 29 25 41 22 18 -4 -19 -23 -19 -23 2 -5 22 18 39 23 30 8 -4 -5
3 -7 14 -4 11 3 20 9 20 14 0 5 -6 6 -13 3 -8 -3 -20 3 -27 13 -12 15 -12 16
0 5 18 -16 33 -16 24 1 -4 6 2 4 13 -6 23 -20 40 -23 24 -4 -8 10 -7 14 4 14
7 0 14 -3 13 -6 -2 -25 4 -33 23 -28 16 4 19 2 14 -11 -5 -13 -3 -14 6 -5 14
14 3 34 -16 26 -8 -3 -15 0 -15 7 0 6 4 9 9 6 5 -4 12 0 14 6 4 10 6 10 6 1 1
-7 8 -13 17 -13 9 0 12 -5 8 -12 -4 -7 -4 -10 1 -6 4 4 15 2 23 -5 13 -10 14
-9 4 10 -8 14 -9 24 -2 28 10 6 14 -1 11 -18 -1 -5 3 -6 9 -2 5 3 20 0 32 -6
21 -11 22 -11 9 5 -12 14 -12 16 4 10 12 -5 16 -4 12 3 -8 12 11 12 31 0 7 -5
12 -3 12 4 0 8 4 8 15 -1 12 -10 15 -10 15 1 0 8 5 6 14 -6 8 -11 28 -20 47
-21 19 -1 28 0 21 3 -6 3 -10 8 -8 12 3 4 -1 8 -9 8 -8 0 -12 -4 -10 -8 3 -4
-2 -6 -10 -5 -24 3 -18 21 8 21 29 1 57 -16 50 -30 -3 -5 0 -4 8 2 15 15 33
18 25 5 -3 -5 1 -9 9 -9 8 0 12 4 9 9 -3 5 8 6 25 3 17 -3 31 -1 31 4 0 6 -9
8 -20 6 -11 -2 -22 -1 -24 3 -3 4 11 8 30 8 24 0 33 -4 30 -13 -7 -18 12 -27
28 -13 11 8 15 8 18 -2 3 -8 6 -7 10 4 7 16 -14 20 -28 5 -12 -12 -24 -8 -18
6 6 15 84 17 105 2 23 -17 74 -11 103 13 16 12 24 22 18 22 -7 0 -11 423 -11
1423 0 782 0 1434 -1 1449 l0 28 -292 2 -293 3 -3 24 c-3 16 0 21 9 16 9 -6
10 -4 3 6 -12 19 -13 159 -1 152 6 -4 7 -1 1 8 -13 21 -13 160 0 152 7 -5 7
-2 0 8 -16 20 -17 182 -1 172 8 -5 8 -2 -1 9 -8 10 -10 26 -6 42 l6 26 -2006
0 -2006 0 -1 -27z m851 -3517 c0 -3 -4 -8 -10 -11 -5 -3 -10 -1 -10 4 0 6 5
11 10 11 6 0 10 -2 10 -4z m95 -6 c3 -5 1 -10 -4 -10 -6 0 -11 5 -11 10 0 6 2
10 4 10 3 0 8 -4 11 -10z m208 -7 c-3 -7 -6 -13 -8 -13 -2 0 -5 6 -8 13 -3 8
1 14 8 14 7 0 11 -6 8 -14z m505 -20 c-11 -14 -32 -7 -23 7 3 4 2 10 -2 13 -5
2 -2 2 5 1 6 -2 12 2 12 9 0 8 4 7 10 -3 5 -9 5 -19 -2 -27z m37 27 c3 -5 1
-10 -4 -10 -6 0 -11 5 -11 10 0 6 2 10 4 10 3 0 8 -4 11 -10z m700 0 c-3 -5
-12 -10 -18 -10 -7 0 -6 4 3 10 19 12 23 12 15 0z m40 0 c-3 -5 -12 -10 -18
-10 -7 0 -6 4 3 10 19 12 23 12 15 0z m410 0 c3 -5 1 -10 -4 -10 -6 0 -11 5
-11 10 0 6 2 10 4 10 3 0 8 -4 11 -10z m110 0 c-3 -5 -12 -10 -18 -10 -7 0 -6
4 3 10 19 12 23 12 15 0z m40 0 c-3 -5 -12 -10 -18 -10 -7 0 -6 4 3 10 19 12
23 12 15 0z m49 2 c2 -4 -5 -9 -17 -9 -17 -2 -19 0 -7 7 18 12 18 12 24 2z
m249 -7 c-3 -9 -8 -14 -10 -11 -3 3 -2 9 2 15 9 16 15 13 8 -4z m136 -3 c-6
-10 -22 -18 -35 -18 -12 0 -20 4 -18 8 3 5 9 6 13 3 5 -2 17 2 27 10 25 19 26
18 13 -3z m147 -21 c-8 -7 -19 -10 -25 -7 -16 10 -13 26 4 26 8 0 15 6 15 13
0 8 3 7 10 -3 6 -10 5 -19 -4 -29z m55 29 c9 13 10 12 5 -2 -3 -10 -3 -18 1
-18 3 0 12 8 20 18 13 16 14 15 4 -3 -13 -27 -57 -28 -59 -1 -1 17 1 18 8 6 9
-13 11 -13 21 0z m62 -15 c-10 -7 -20 -12 -21 -10 -7 7 23 33 31 28 5 -3 0
-11 -10 -18z m577 19 c0 -8 -19 -13 -24 -6 -3 5 1 9 9 9 8 0 15 -2 15 -3z
m270 0 c0 -8 -19 -13 -24 -6 -3 5 1 9 9 9 8 0 15 -2 15 -3z m30 2 c0 -3 -4 -8
-10 -11 -5 -3 -10 -1 -10 4 0 6 5 11 10 11 6 0 10 -2 10 -4z m-2020 -25 c13
-25 -3 -36 -21 -14 -12 14 -12 16 0 8 11 -6 13 -4 8 8 -9 23 0 21 13 -2z m71
-14 c-10 -9 -11 -8 -5 6 3 10 9 15 12 12 3 -3 0 -11 -7 -18z m84 1 c4 0 12 6
16 14 7 10 9 10 9 -2 0 -13 1 -13 10 0 5 8 10 10 10 4 0 -18 -30 -40 -38 -27
-4 5 -15 9 -24 8 -11 -2 -15 2 -11 12 4 10 8 11 13 3 4 -6 11 -12 15 -12z
m545 14 c0 -5 -7 -9 -15 -9 -8 0 -12 4 -9 9 3 4 9 8 15 8 5 0 9 -4 9 -8z m225
-21 c3 -5 1 -12 -5 -16 -5 -3 -10 1 -10 9 0 18 6 21 15 7z"/>
<path d="M3840 780 c-9 -6 -10 -10 -3 -10 6 0 15 5 18 10 8 12 4 12 -15 0z"/>
<path d="M330 1418 c0 -11 12 -10 30 2 12 7 10 9 -8 7 -12 0 -22 -5 -22 -9z"/>
<path d="M383 1416 c1 -6 -4 -10 -11 -8 -8 1 -11 -2 -7 -8 5 -8 11 -8 19 -1 7
6 15 9 18 6 2 -3 5 1 5 8 0 8 -6 14 -13 14 -7 0 -12 -5 -11 -11z"/>
<path d="M515 1409 c-4 -6 -5 -12 -2 -15 2 -3 7 2 10 11 7 17 1 20 -8 4z"/>
<path d="M825 1399 c-4 -6 -5 -12 -2 -15 2 -3 7 2 10 11 7 17 1 20 -8 4z"/>
<path d="M1311 779 c5 -10 15 -21 22 -25 8 -6 8 -3 -1 9 -8 9 -11 20 -8 25 3
5 -1 9 -9 9 -10 0 -11 -5 -4 -18z"/>
<path d="M4355 789 c-4 -5 -4 -13 -1 -16 3 -4 6 0 6 8 0 11 2 11 10 -1 6 -9
10 -10 10 -3 0 17 -17 25 -25 12z"/>
<path d="M4726 788 c3 -4 9 -8 15 -8 5 0 9 4 9 8 0 5 -7 9 -15 9 -8 0 -12 -4
-9 -9z"/>
<path d="M1592 777 c-8 -10 -6 -13 7 -13 11 0 17 6 14 13 -3 7 -6 13 -8 13 -1
0 -7 -6 -13 -13z"/>
<path d="M1652 770 c0 -14 2 -19 5 -12 2 6 2 18 0 25 -3 6 -5 1 -5 -13z"/>
<path d="M1742 781 c-11 -6 -10 -10 0 -19 11 -8 14 -7 14 9 0 10 0 19 -1 19 0
0 -6 -4 -13 -9z"/>
<path d="M2176 782 c-3 -5 1 -9 9 -9 8 0 12 4 9 9 -3 4 -7 8 -9 8 -2 0 -6 -4
-9 -8z"/>
<path d="M2491 776 c-9 -11 -8 -18 4 -30 22 -21 31 -21 14 1 -12 15 -12 16 3
11 21 -9 31 2 17 19 -14 17 -24 17 -38 -1z"/>
<path d="M4390 779 c0 -6 5 -7 12 -3 8 5 9 2 5 -9 -8 -23 0 -22 12 1 8 14 6
18 -10 19 -10 1 -19 -3 -19 -8z"/>
<path d="M1170 776 c0 -2 8 -10 18 -17 15 -13 16 -12 3 4 -13 16 -21 21 -21
13z"/>
<path d="M2279 768 c-11 -8 -10 -9 3 -4 10 3 20 1 23 -4 9 -14 27 -12 23 2 -5
15 -32 18 -49 6z"/>
<path d="M2545 753 c-9 -12 -11 -23 -5 -23 5 0 10 5 10 10 0 6 7 10 15 10 8 0
15 4 15 8 0 5 7 9 15 9 8 0 15 -4 15 -9 0 -4 -4 -8 -10 -8 -5 0 -10 -4 -10
-10 0 -18 18 -11 25 9 4 14 12 18 23 14 9 -3 14 -3 10 2 -4 4 -26 9 -48 10
-32 2 -43 -3 -55 -22z"/>
<path d="M3054 759 c0 -10 4 -19 8 -19 4 0 8 6 8 14 0 8 -4 17 -8 20 -4 2 -8
-4 -8 -15z"/>
<path d="M3084 769 c-3 -6 -2 -15 3 -20 12 -12 53 -20 52 -11 -3 21 2 32 13
26 7 -5 8 -3 3 6 -6 10 -12 8 -24 -8 -11 -15 -20 -19 -30 -13 -7 5 -10 14 -7
20 4 6 5 11 2 11 -3 0 -8 -5 -12 -11z"/>
<path d="M3166 759 c-18 -22 -20 -29 -7 -29 5 0 12 9 16 19 4 12 12 18 21 14
7 -3 14 -3 14 0 0 15 -29 12 -44 -4z"/>
<path d="M3359 777 c-8 -19 -5 -44 5 -44 8 0 12 6 10 12 -3 6 2 12 11 12 9 0
14 -6 11 -12 -2 -6 2 -12 9 -12 8 0 11 7 7 16 -5 13 -3 14 10 4 15 -13 28 -8
28 9 0 5 -11 6 -24 4 -13 -2 -27 -2 -30 2 -6 5 -35 12 -37 9z"/>
<path d="M1230 758 c0 -4 4 -8 9 -8 6 0 12 4 15 8 3 5 -1 9 -9 9 -8 0 -15 -4
-15 -9z"/>
<path d="M1965 759 c-6 -8 -4 -10 5 -4 10 6 12 4 6 -11 -6 -15 -5 -17 5 -6 9
9 10 15 2 23 -8 8 -13 7 -18 -2z"/>
<path d="M2340 759 c0 -4 9 -9 21 -12 13 -4 18 -10 13 -18 -4 -8 -3 -10 5 -5
8 6 9 12 2 20 -6 7 -9 15 -6 17 2 3 -5 5 -15 5 -11 0 -20 -3 -20 -7z"/>
<path d="M2390 763 c0 -19 14 -22 40 -7 14 7 21 13 15 13 -5 1 -17 -3 -25 -9
-9 -6 -17 -5 -22 3 -6 9 -8 9 -8 0z"/>
<path d="M2456 755 c-3 -8 -1 -15 4 -15 6 0 10 7 10 15 0 8 -2 15 -4 15 -2 0
-6 -7 -10 -15z"/>
<path d="M2657 756 c-4 -9 -11 -15 -16 -11 -5 3 -12 1 -16 -4 -3 -6 4 -8 16
-6 27 5 32 10 27 26 -3 9 -7 7 -11 -5z"/>
<path d="M2853 750 c-11 -16 -10 -18 2 -14 8 4 15 12 15 20 0 19 -3 18 -17 -6z"/>
<path d="M3216 755 c-3 -8 -1 -15 4 -15 6 0 10 7 10 15 0 8 -2 15 -4 15 -2 0
-6 -7 -10 -15z"/>
<path d="M4150 762 c0 -5 7 -9 15 -9 8 0 12 4 9 9 -3 4 -9 8 -15 8 -5 0 -9 -4
-9 -8z"/>
<path d="M4295 760 c3 -5 8 -10 11 -10 2 0 4 5 4 10 0 6 -5 10 -11 10 -5 0 -7
-4 -4 -10z"/>
<path d="M1696 742 c-3 -5 1 -9 9 -9 8 0 12 4 9 9 -3 4 -7 8 -9 8 -2 0 -6 -4
-9 -8z"/>
<path d="M1895 740 c3 -5 8 -10 11 -10 2 0 4 5 4 10 0 6 -5 10 -11 10 -5 0 -7
-4 -4 -10z"/>
<path d="M2068 743 c6 -2 18 -2 25 0 6 3 1 5 -13 5 -14 0 -19 -2 -12 -5z"/>
<path d="M2290 740 c0 -5 5 -10 11 -10 5 0 7 5 4 10 -3 6 -8 10 -11 10 -2 0
-4 -4 -4 -10z"/>
<path d="M3455 741 c-3 -5 0 -13 6 -17 7 -4 9 -3 5 4 -3 5 0 13 6 15 9 4 10 6
1 6 -6 1 -14 -3 -18 -8z"/>
<path d="M2433 725 c0 -8 4 -15 9 -15 4 0 8 4 8 9 0 6 -4 12 -8 15 -5 3 -9 -1
-9 -9z"/>
<path d="M2954 715 c0 -13 3 -22 7 -19 8 4 6 30 -2 38 -3 3 -5 -5 -5 -19z"/>
<path d="M3033 725 c0 -8 4 -12 9 -9 5 3 6 10 3 15 -9 13 -12 11 -12 -6z"/>
<path d="M2033 715 c0 -8 4 -12 9 -9 5 3 6 10 3 15 -9 13 -12 11 -12 -6z"/>
<path d="M2255 720 c3 -5 8 -10 11 -10 2 0 4 5 4 10 0 6 -5 10 -11 10 -5 0 -7
-4 -4 -10z"/>
<path d="M2466 718 c3 -5 10 -6 15 -3 13 9 11 12 -6 12 -8 0 -12 -4 -9 -9z"/>
<path d="M2875 720 c3 -5 8 -10 11 -10 2 0 4 5 4 10 0 6 -5 10 -11 10 -5 0 -7
-4 -4 -10z"/>
<path d="M3600 720 c-9 -6 -10 -10 -3 -10 6 0 15 5 18 10 8 12 4 12 -15 0z"/>
<path d="M3810 721 c0 -6 4 -13 10 -16 6 -3 7 1 4 9 -7 18 -14 21 -14 7z"/>
<path d="M2395 709 c-4 -6 -5 -12 -2 -15 2 -3 7 2 10 11 7 17 1 20 -8 4z"/>
<path d="M2813 705 c0 -8 4 -12 9 -9 5 3 6 10 3 15 -9 13 -12 11 -12 -6z"/>
<path d="M2845 700 c-3 -6 1 -7 9 -4 18 7 21 14 7 14 -6 0 -13 -4 -16 -10z"/>
<path d="M3130 706 c0 -2 7 -7 16 -10 8 -3 12 -2 9 4 -6 10 -25 14 -25 6z"/>
<path d="M3235 700 c3 -5 8 -10 11 -10 2 0 4 5 4 10 0 6 -5 10 -11 10 -5 0 -7
-4 -4 -10z"/>
<path d="M2935 651 c-3 -5 -2 -12 3 -15 5 -3 9 1 9 9 0 17 -3 19 -12 6z"/>
</g>
</svg>
