<?xml version="1.0" standalone="no"?>
<!DOCTYPE svg PUBLIC "-//W3C//DTD SVG 20010904//EN"
 "http://www.w3.org/TR/2001/REC-SVG-20010904/DTD/svg10.dtd">
<svg version="1.0" xmlns="http://www.w3.org/2000/svg"
 width="512.000000pt" height="512.000000pt" viewBox="0 0 512.000000 512.000000"
 preserveAspectRatio="xMidYMid meet">
<metadata>
Created by potrace 1.11, written by Peter Selinger 2001-2013
</metadata>
<g transform="translate(0.000000,512.000000) scale(0.100000,-0.100000)"
fill="#000000" stroke="none">
<path d="M4281 4334 c0 -11 3 -14 6 -6 3 7 2 16 -1 19 -3 4 -6 -2 -5 -13z"/>
<path d="M500 3598 c0 -298 3 -538 7 -534 7 7 9 21 12 94 1 27 5 32 27 32 17
0 23 4 18 13 -6 9 -3 8 8 -1 9 -8 14 -20 12 -27 -6 -15 29 -38 41 -27 5 4 5 1
1 -5 -10 -17 6 -16 30 2 10 8 24 14 29 14 6 0 2 -4 -7 -10 -24 -14 -23 -39 2
-39 11 0 20 6 20 14 0 10 8 13 24 10 14 -2 36 0 50 6 14 5 25 6 25 2 -1 -4 0
-9 1 -12 5 -14 9 -64 10 -145 1 -57 6 -92 13 -97 7 -4 -4 -8 -24 -8 -40 0 -94
-35 -82 -53 4 -7 0 -8 -13 -1 -27 13 -149 11 -166 -4 -10 -8 -18 -8 -25 -1 -7
7 -11 -12 -12 -65 -1 -74 -1 -76 23 -76 15 0 26 7 29 18 3 10 5 6 6 -10 1 -16
-4 -28 -11 -28 -10 0 -10 -2 0 -9 11 -7 10 -10 -3 -15 -23 -9 -24 -8 -18 15 4
16 2 20 -8 17 -10 -3 -14 -22 -14 -64 0 -51 3 -59 20 -62 87 -14 127 -25 114
-32 -8 -6 -16 -4 -21 3 -6 9 -12 9 -29 -1 -17 -11 -23 -11 -29 -2 -4 7 -13 9
-20 5 -9 -5 -11 -4 -6 3 5 8 0 12 -13 12 -19 0 -20 -6 -20 -205 1 -154 4 -204
12 -199 8 5 8 2 0 -7 -18 -19 -16 -46 5 -58 14 -9 14 -10 1 -11 -12 0 -16 -16
-17 -89 -3 -85 -2 -89 17 -84 11 3 26 11 32 19 6 8 20 14 31 14 10 0 17 4 14
8 -3 5 16 9 42 9 37 1 42 0 22 -7 -20 -6 -13 -8 29 -9 46 -1 52 -3 41 -16 -7
-8 -21 -15 -31 -15 -23 0 -69 -21 -69 -32 0 -4 -7 -8 -15 -8 -8 0 -15 -6 -15
-14 0 -9 9 -13 25 -11 26 2 48 15 27 15 -7 0 -12 4 -12 8 0 4 12 7 28 7 15 -1
37 2 50 7 15 5 21 4 17 -2 -3 -6 -13 -10 -22 -10 -10 0 -13 -6 -9 -17 6 -17 5
-17 -8 0 -11 14 -15 15 -19 3 -7 -17 25 -27 44 -15 12 7 12 9 0 9 -24 0 -5 10
27 14 20 3 32 -1 36 -10 3 -8 14 -14 25 -14 25 0 36 -15 13 -17 -57 -6 -82
-16 -72 -28 8 -9 5 -12 -12 -11 -13 1 -22 7 -20 14 1 7 -2 12 -8 12 -5 0 -10
-7 -10 -16 0 -8 -7 -23 -16 -31 -13 -14 -17 -14 -25 -2 -7 11 -9 11 -9 -4 0
-14 9 -35 28 -66 1 -3 9 4 17 15 12 16 14 17 15 3 0 -22 21 -29 86 -29 l54 0
0 385 c0 327 -2 385 -15 385 -7 0 -17 -5 -21 -11 -5 -8 -10 -6 -16 5 -5 9 -13
16 -19 16 -5 0 -20 9 -32 20 -12 12 -23 16 -25 10 -6 -16 -32 -12 -32 6 0 8 4
13 9 10 5 -4 11 -2 13 4 2 6 19 -1 38 -14 19 -13 50 -26 67 -30 l33 -5 -1 54
c-1 30 -4 54 -8 53 -3 0 -8 0 -11 2 -3 1 -16 4 -30 6 -13 2 -27 10 -31 16 -4
6 -24 13 -44 15 -22 2 -34 0 -31 -6 4 -5 1 -13 -5 -17 -7 -4 -9 -3 -6 3 12 20
-32 21 -54 2 -17 -14 -31 -17 -68 -12 -57 7 -58 8 -29 24 23 12 37 15 128 23
25 2 53 7 63 11 9 4 24 2 32 -5 13 -10 21 -10 43 0 15 8 32 14 37 14 6 1 11
45 13 105 2 81 0 102 -10 99 -16 -6 -58 8 -58 20 0 10 41 10 58 -1 9 -7 12 84
12 442 l0 451 1087 0 c597 0 1084 2 1082 4 -5 4 -422 18 -485 16 -36 -1 -42 3
-47 22 -8 32 -8 38 1 37 4 0 5 -8 4 -17 -3 -13 -1 -14 12 -3 9 7 13 18 9 24
-3 6 -1 7 5 3 9 -5 7 -15 -5 -34 -17 -27 -17 -27 3 -9 25 21 64 23 64 2 0 -8
6 -15 13 -15 23 1 87 36 80 45 -5 4 1 3 13 -3 16 -9 23 -7 34 11 8 12 13 26
12 30 -1 5 1 6 6 3 5 -3 8 -21 7 -41 -2 -44 4 -38 25 25 19 56 16 68 -12 43
-18 -16 -23 -8 -12 22 6 14 9 14 28 2 37 -23 56 -28 56 -12 0 9 -6 12 -15 9
-8 -4 -15 -1 -15 4 0 6 10 9 22 7 12 -3 28 1 37 8 12 9 13 9 7 0 -4 -7 -2 -21
3 -30 9 -16 11 -15 11 7 1 22 2 23 9 6 5 -14 10 -16 15 -8 4 7 4 12 0 12 -4 0
0 8 9 18 10 10 14 22 10 25 -3 4 -1 7 5 7 15 0 15 -13 0 -28 -19 -19 -18 -41
4 -48 11 -3 25 -1 32 6 8 8 7 10 -5 5 -10 -4 -16 0 -16 10 0 14 10 19 30 16 5
-1 7 4 4 11 -2 7 -10 12 -16 10 -7 -1 -10 2 -6 8 3 6 11 8 16 5 5 -4 18 -8 30
-10 18 -4 20 0 17 20 -3 13 -1 22 3 19 5 -3 9 0 9 6 0 6 5 8 11 4 8 -4 7 -9
-2 -16 -11 -8 -11 -9 1 -5 8 2 14 11 14 19 -1 12 7 14 39 10 25 -2 37 0 33 6
-3 5 1 12 9 16 8 3 16 16 16 28 1 16 3 18 6 6 7 -27 30 -29 32 -2 1 13 3 35 4
47 1 13 7 24 13 24 6 0 9 -11 6 -25 -3 -17 -1 -23 7 -18 6 4 11 16 11 27 0 16
6 20 28 17 15 -2 30 -10 34 -18 5 -12 7 -12 7 3 1 9 6 17 12 17 7 0 9 -11 6
-30 -4 -16 -2 -32 3 -35 6 -4 10 9 10 29 0 20 1 36 3 36 1 1 88 3 192 7 105 3
192 7 194 9 2 2 -721 4 -1607 4 l-1612 0 0 -542z m2662 480 c-6 -6 -7 0 -4 19
5 21 7 23 10 9 2 -10 0 -22 -6 -28z m-37 -48 c6 -1 12 -4 15 -7 3 -2 1 -4 -5
-3 -5 1 -12 2 -15 0 -12 -4 -54 -8 -42 -4 6 3 12 10 12 15 0 6 -5 7 -12 3 -7
-4 -8 -3 -4 4 5 8 13 9 24 3 9 -5 22 -10 27 -11z m-85 6 c0 -3 -4 -8 -10 -11
-5 -3 -10 -1 -10 4 0 6 5 11 10 11 6 0 10 -2 10 -4z m-190 -99 c0 7 7 10 15 6
20 -7 16 -11 -17 -17 -21 -3 -25 -1 -21 11 5 12 7 12 14 1 6 -9 9 -10 9 -1z
m-230 -128 c0 8 3 12 6 8 12 -11 -6 -25 -27 -20 -15 4 -17 8 -8 14 8 5 17 3
21 -4 6 -9 8 -8 8 2z m-160 -55 c0 -2 -19 -4 -42 -3 -31 0 -37 3 -24 8 18 7
66 3 66 -5z m-1850 -934 c0 -5 -8 -10 -17 -10 -15 0 -16 2 -3 10 19 12 20 12
20 0z m45 -34 c-15 -22 -19 -23 -31 -11 -19 19 -18 24 6 18 16 -4 20 0 20 18
0 17 3 20 11 12 8 -8 6 -18 -6 -37z m95 -44 c0 -5 -7 -9 -15 -9 -8 0 -12 4 -9
9 3 4 9 8 15 8 5 0 9 -4 9 -8z m-83 -28 c-3 -3 -12 -4 -19 -1 -8 3 -5 6 6 6
11 1 17 -2 13 -5z m143 -24 c0 -5 -5 -10 -11 -10 -5 0 -7 5 -4 10 3 6 8 10 11
10 2 0 4 -4 4 -10z m-86 -15 c3 -8 1 -15 -4 -15 -6 0 -10 7 -10 15 0 8 2 15 4
15 2 0 6 -7 10 -15z m-51 -32 c-7 -2 -21 -2 -30 0 -10 3 -4 5 12 5 17 0 24 -2
18 -5z m57 -133 c0 -5 -2 -10 -4 -10 -3 0 -8 5 -11 10 -3 6 -1 10 4 10 6 0 11
-4 11 -10z m-57 -65 c-2 -6 -20 -9 -41 -7 -24 3 -31 7 -20 11 28 10 66 7 61
-4z m-30 -49 c-6 -27 -50 -54 -50 -30 0 8 6 13 14 10 15 -6 15 -4 7 18 -3 9
-14 17 -23 17 -9 1 -2 5 14 8 39 9 43 7 38 -23z m146 -28 c1 -5 -3 -8 -9 -8
-5 0 -10 12 -9 28 0 24 1 25 9 7 5 -11 9 -23 9 -27z m-109 18 c0 -11 -19 -15
-25 -6 -3 5 1 10 9 10 9 0 16 -2 16 -4z m70 -57 c0 -5 -4 -9 -10 -9 -5 0 -10
7 -10 16 0 8 5 12 10 9 6 -3 10 -10 10 -16z m-160 -23 c14 -18 14 -19 -8 -7
-12 7 -20 17 -16 22 3 6 7 9 8 7 1 -2 8 -12 16 -22z m160 -1 c0 -7 -30 -13
-34 -7 -3 4 4 9 15 9 10 1 19 0 19 -2z m-163 -84 c5 -40 -9 -57 -21 -26 -3 8
-1 15 5 15 10 0 8 11 -9 60 -4 12 -2 12 8 3 7 -6 15 -30 17 -52z m159 24 c1
-8 -2 -13 -7 -9 -5 3 -9 12 -9 21 0 19 13 9 16 -12z m94 -15 c0 -5 -2 -10 -4
-10 -3 0 -8 5 -11 10 -3 6 -1 10 4 10 6 0 11 -4 11 -10z m-95 -19 c-3 -5 3
-12 14 -16 21 -6 59 -45 44 -45 -5 0 -18 9 -28 20 -10 11 -22 17 -26 14 -5 -3
-9 -3 -9 0 0 2 -3 11 -6 20 -3 9 -1 16 6 16 6 0 9 -4 5 -9z m-75 -51 c0 -13
-1 -13 -10 0 -5 8 -10 22 -10 30 0 13 1 13 10 0 5 -8 10 -22 10 -30z m-105 -1
c-4 -5 -12 -9 -18 -8 -9 0 -8 2 1 6 6 2 9 10 6 15 -4 7 -2 8 5 4 6 -4 9 -12 6
-17z m151 -19 c8 0 14 -7 14 -15 0 -8 8 -15 18 -15 14 0 15 -2 2 -10 -11 -7
-17 -4 -24 10 -5 11 -13 20 -19 20 -5 0 0 -16 12 -35 27 -46 18 -45 -14 2 -14
21 -25 31 -25 24 0 -8 -3 -12 -6 -9 -3 3 1 16 8 27 7 12 14 17 16 11 2 -5 10
-10 18 -10z m124 -45 c0 -3 -3 -4 -7 -3 -5 0 -16 -2 -25 -6 -10 -4 -23 -6 -30
-3 -7 3 -3 6 9 6 25 1 39 16 23 26 -5 3 -10 10 -10 16 0 5 9 0 20 -11 11 -11
20 -22 20 -25z m-310 -6 c0 -6 -4 -7 -10 -4 -5 3 -10 11 -10 16 0 6 5 7 10 4
6 -3 10 -11 10 -16z m157 -5 c-3 -3 -12 -4 -19 -1 -8 3 -5 6 6 6 11 1 17 -2
13 -5z m138 -32 c-11 -2 -24 -8 -29 -13 -16 -14 -26 -11 -26 9 0 15 6 17 38
13 23 -3 30 -6 17 -9z m-89 -39 c-7 -7 -26 7 -26 19 0 6 6 6 15 -2 9 -7 13
-15 11 -17z m94 12 c-10 -12 -10 -15 0 -15 8 0 11 -2 8 -5 -3 -3 -13 -3 -22 1
-13 5 -14 9 -5 20 6 8 16 14 21 14 6 0 5 -7 -2 -15z m-35 -45 c3 -5 -1 -10 -9
-10 -9 0 -16 5 -16 10 0 6 4 10 9 10 6 0 13 -4 16 -10z m41 -117 c-10 -10 -19
5 -10 18 6 11 8 11 12 0 2 -7 1 -15 -2 -18z m3 -185 c1 -5 -3 -8 -9 -8 -5 0
-10 12 -9 28 0 24 1 25 9 7 5 -11 9 -23 9 -27z"/>
<path d="M3798 4133 c6 -2 18 -2 25 0 6 3 1 5 -13 5 -14 0 -19 -2 -12 -5z"/>
<path d="M3848 4133 c6 -2 18 -2 25 0 6 3 1 5 -13 5 -14 0 -19 -2 -12 -5z"/>
<path d="M3913 4133 c15 -2 39 -2 55 0 15 2 2 4 -28 4 -30 0 -43 -2 -27 -4z"/>
<path d="M4008 4133 c6 -2 18 -2 25 0 6 3 1 5 -13 5 -14 0 -19 -2 -12 -5z"/>
<path d="M4054 3935 c0 -115 2 -161 3 -102 2 59 2 154 0 210 -1 56 -3 8 -3
-108z"/>
<path d="M3366 4085 c-3 -8 -1 -15 4 -15 6 0 10 7 10 15 0 8 -2 15 -4 15 -2 0
-6 -7 -10 -15z"/>
<path d="M3262 4034 c-1 -13 0 -24 2 -24 7 0 14 40 7 44 -4 3 -8 -6 -9 -20z"/>
<path d="M3292 4040 c0 -14 2 -19 5 -12 2 6 2 18 0 25 -3 6 -5 1 -5 -13z"/>
<path d="M3313 4025 c0 -8 4 -12 9 -9 4 3 8 9 8 15 0 5 -4 9 -8 9 -5 0 -9 -7
-9 -15z"/>
<path d="M2987 3905 c-4 -8 -3 -16 1 -19 4 -3 9 4 9 15 2 23 -3 25 -10 4z"/>
<path d="M2840 3880 c0 -5 5 -10 10 -10 6 0 10 5 10 10 0 6 -4 10 -10 10 -5 0
-10 -4 -10 -10z"/>
<path d="M1193 3503 c70 -2 184 -2 255 0 70 1 12 3 -128 3 -140 0 -198 -2
-127 -3z"/>
<path d="M3245 3490 c-25 -28 -15 -33 28 -15 51 21 51 20 4 -27 -23 -22 -33
-34 -21 -25 29 23 41 21 19 -3 -14 -15 -15 -20 -4 -21 8 0 6 -4 -5 -8 -11 -4
-20 -15 -22 -25 -2 -12 2 -16 12 -12 8 3 14 -1 14 -11 0 -13 2 -14 17 -2 15
13 16 11 10 -11 -6 -24 -5 -24 21 5 15 17 23 25 18 18 -17 -25 1 -24 32 2 46
39 52 29 7 -11 -22 -19 -30 -30 -18 -25 34 17 36 13 8 -16 -23 -25 -23 -28 -7
-35 13 -5 12 -7 -8 -8 -23 -1 -23 -2 -5 -10 19 -8 19 -9 -3 -9 -13 -1 -21 -5
-17 -11 3 -5 -9 -17 -26 -26 -27 -14 -41 -14 -87 -5 -75 15 -77 7 -3 -15 33
-10 57 -21 52 -24 -10 -7 -21 -51 -11 -45 5 3 11 0 13 -5 3 -6 4 -5 3 2 -1 7
3 18 10 25 16 17 27 17 18 1 -4 -7 2 -5 14 6 20 17 22 17 38 1 14 -13 19 -14
25 -3 7 11 9 11 9 0 0 -7 4 -10 10 -7 6 4 7 -2 1 -18 -7 -18 -6 -24 4 -24 8 0
11 5 8 11 -4 8 -2 8 5 1 6 -6 9 -20 6 -33 -5 -18 -13 -22 -46 -22 -22 0 -56
-8 -76 -17 l-36 -17 34 -7 c19 -4 37 -4 40 -1 8 11 32 13 25 2 -3 -5 -1 -10 4
-10 6 0 11 5 11 10 0 6 5 10 11 10 8 0 8 -4 1 -13 -7 -9 -8 -23 -3 -43 7 -21
10 -24 11 -9 l1 20 9 -20 c12 -28 12 -37 0 -30 -5 3 -10 0 -11 -7 0 -7 -7 1
-15 17 l-14 30 2 -30 c2 -16 -1 -32 -7 -34 -35 -14 -150 -98 -197 -143 -10
-10 -22 -18 -27 -18 -6 0 -9 -9 -8 -19 0 -10 6 -17 13 -14 8 3 10 -8 7 -38 -5
-36 -3 -40 9 -28 8 7 13 23 11 34 -3 16 -2 15 7 -3 5 -13 7 -29 3 -35 -11 -17
-12 -37 -4 -37 5 0 27 14 49 30 23 17 46 30 51 30 5 0 14 14 21 30 7 17 16 30
20 30 4 0 7 7 6 16 0 9 5 19 12 21 6 3 10 -1 9 -9 -2 -7 -2 -10 1 -5 2 4 12
12 23 17 17 10 18 8 9 -16 -6 -15 -8 -29 -5 -32 3 -3 5 -1 5 5 0 5 6 10 14 10
8 0 12 -6 9 -14 -3 -8 -8 -12 -10 -9 -3 3 -13 -3 -22 -12 -9 -10 -12 -12 -7
-5 11 16 2 28 -14 18 -7 -4 -10 -18 -7 -31 5 -27 -2 -30 -22 -11 -10 10 -11 6
-5 -17 6 -25 5 -28 -11 -22 -15 5 -16 4 -5 -9 8 -10 9 -15 1 -15 -6 0 -10 -4
-8 -9 1 -5 -2 -8 -8 -8 -5 1 -9 17 -9 35 l1 33 -26 -17 c-59 -38 -65 -45 -67
-69 -1 -20 2 -23 13 -14 11 9 11 15 1 28 -7 9 -8 13 -4 9 5 -4 16 -2 25 5 14
11 15 10 1 -7 -14 -18 -13 -19 5 -12 16 6 13 0 -10 -25 -17 -18 -24 -29 -18
-25 8 4 11 2 8 -7 -3 -7 -26 -21 -50 -32 -57 -23 -59 -39 -4 -20 55 20 55 20
27 -17 -43 -57 -54 -87 -16 -44 28 32 34 35 34 18 0 -11 -5 -18 -11 -15 -5 3
-4 0 3 -8 10 -11 16 -11 33 -1 11 7 24 10 29 7 5 -3 11 -1 15 5 3 5 10 10 16
10 5 0 0 -9 -11 -20 -12 -12 -18 -25 -15 -29 2 -5 -1 -14 -9 -20 -11 -9 -9
-16 13 -40 14 -16 30 -26 35 -21 5 5 15 6 24 3 8 -4 13 -2 9 3 -3 6 4 11 16
11 22 2 22 2 -2 -18 -19 -15 -26 -17 -32 -7 -5 8 -8 6 -6 -9 1 -20 2 -21 31
-6 l30 16 -17 -26 c-17 -26 -17 -26 5 -18 13 5 22 14 20 21 -1 6 2 9 8 5 13
-8 13 -11 -6 -29 -18 -18 -30 -71 -14 -61 5 3 7 0 4 -9 -4 -11 -20 -6 -77 26
-40 22 -84 53 -99 71 -28 31 -72 51 -47 21 6 -7 16 -11 23 -7 6 3 5 0 -2 -8
-10 -11 -16 -11 -32 -1 -11 7 -20 8 -20 3 0 -5 7 -12 16 -15 21 -8 1 -35 -24
-31 -9 1 -11 0 -4 -2 6 -3 12 -11 12 -19 0 -8 4 -13 8 -10 4 2 6 -12 4 -32
l-3 -37 15 28 c8 15 13 34 9 42 -3 10 1 15 12 15 13 0 16 -6 13 -24 -4 -17 -1
-23 9 -19 7 3 10 9 7 14 -3 5 2 6 10 3 9 -3 16 -12 16 -19 0 -9 9 -12 25 -9
20 3 23 1 18 -13 -6 -16 -4 -16 17 2 l23 20 -6 -23 c-4 -19 -3 -21 9 -11 11 9
14 8 14 -7 0 -16 2 -17 10 -4 8 12 10 12 10 -5 0 -15 2 -17 9 -6 7 11 11 10
21 -5 9 -15 10 -15 6 -2 -2 9 2 19 10 22 8 3 14 9 13 13 -3 20 2 27 11 13 7
-11 10 -11 10 -2 0 7 5 10 10 7 6 -4 8 -12 4 -18 -3 -7 1 -4 9 6 14 17 15 16
20 -3 3 -11 1 -18 -4 -14 -5 3 -9 -2 -9 -11 0 -14 -2 -14 -24 0 -15 10 -27 12
-30 6 -8 -13 15 -62 25 -55 5 3 9 -4 9 -14 0 -13 -13 -26 -37 -38 l-38 -19 45
-5 45 -5 -35 -23 c-39 -25 -46 -26 -55 -12 -4 6 -11 8 -16 5 -5 -3 -6 1 -3 10
5 13 -1 12 -39 -4 -46 -20 -67 -15 -67 17 0 10 3 10 16 -2 19 -19 31 -21 15
-3 -8 11 -7 14 7 14 9 0 20 -5 24 -11 5 -7 8 -3 8 8 0 11 7 27 15 37 15 16 11
15 -57 -1 -40 -10 -89 -23 -108 -29 -127 -39 -218 -117 -245 -211 -4 -14 9 0
29 31 20 31 46 64 59 72 22 14 23 14 24 -17 1 -29 1 -29 -7 -6 -5 15 -8 19 -9
8 -1 -25 10 -49 20 -42 5 3 10 22 10 42 l2 37 7 -40 7 -40 2 40 c2 31 4 36 10
20 5 -11 7 -24 6 -30 -1 -5 0 -7 2 -2 3 4 9 7 14 7 17 0 4 -25 -23 -42 -18
-11 -25 -23 -22 -33 4 -9 0 -23 -8 -33 -8 -9 -23 -30 -33 -47 l-18 -29 44 34
c24 19 37 26 29 15 -8 -11 -22 -28 -30 -39 -8 -11 -32 -39 -53 -62 -30 -34
-37 -48 -32 -66 l8 -22 23 28 24 27 1 -33 c1 -31 1 -32 9 -8 7 21 8 22 10 5
l1 -20 9 20 c8 18 9 18 10 -5 1 -23 2 -23 18 10 32 62 55 91 68 86 9 -3 15 7
20 29 3 19 11 35 16 35 5 0 6 -10 3 -21 -5 -15 -4 -19 4 -15 6 4 11 12 11 17
0 6 6 17 14 25 11 11 16 11 19 1 3 -6 6 -1 6 12 1 23 2 24 14 7 13 -17 14 -18
20 -2 4 9 3 15 -2 12 -5 -4 -7 3 -4 15 4 14 8 17 13 8 6 -9 9 -9 13 2 2 8 3 1
1 -16 -3 -22 -1 -26 6 -15 7 11 10 11 10 2 0 -24 18 -3 22 27 3 23 1 28 -11
24 -14 -4 -14 -4 -1 6 11 8 18 6 29 -7 12 -15 13 -14 9 10 -3 17 -1 25 5 21 6
-4 8 3 4 18 -6 23 -6 24 10 4 15 -20 15 -20 9 2 -4 12 -2 24 4 28 6 4 8 15 5
25 -4 13 1 22 14 29 27 15 31 14 25 -4 -4 -8 -1 -15 5 -15 6 0 13 11 17 25 3
14 10 25 15 25 10 0 3 -39 -18 -87 -17 -42 -17 -62 1 -38 12 17 13 17 20 -8 4
-16 13 -27 24 -27 15 -1 15 -2 -2 -15 -17 -13 -16 -14 15 -11 19 2 26 1 17 -1
-10 -2 -18 -9 -18 -14 0 -6 -4 -7 -10 -4 -5 3 -10 1 -10 -4 0 -6 9 -11 20 -11
19 0 19 -1 3 -18 -10 -11 -21 -17 -25 -15 -4 2 -10 -2 -14 -8 -5 -8 -1 -10 13
-7 43 11 47 -10 6 -30 -44 -23 -54 -51 -16 -47 22 2 22 1 8 -15 -18 -20 -20
-34 -2 -24 8 5 8 2 -2 -9 -7 -9 -20 -17 -28 -17 -8 0 -11 -4 -8 -10 8 -13 -1
-13 -26 1 -36 19 -137 30 -177 20 -20 -6 -95 -27 -165 -47 -80 -22 -137 -34
-153 -30 -28 7 -96 -2 -90 -13 2 -3 -19 -7 -47 -7 -174 -4 -309 -13 -320 -22
-31 -24 -480 -39 -503 -16 -7 6 -37 16 -68 23 -31 7 -56 16 -56 20 0 13 -116
29 -240 34 -36 1 -70 5 -76 9 -6 4 -37 9 -68 10 -39 2 -56 6 -56 16 0 9 -11
13 -32 12 -18 -1 -37 -1 -43 0 -5 1 -13 2 -17 1 -5 0 -8 2 -8 6 0 5 -36 8 -79
8 -63 0 -77 2 -69 12 7 9 7 13 -1 13 -6 0 -11 5 -11 10 0 17 18 11 25 -9 6
-19 6 -19 45 0 21 10 44 19 50 19 5 0 10 3 10 8 0 4 -20 8 -45 9 -26 1 -43 -2
-40 -7 3 -5 13 -6 23 -3 13 4 13 2 -3 -10 -19 -16 -45 -24 -32 -10 11 10 -13
33 -34 33 -18 0 -19 -13 -19 -305 l0 -305 1788 2 1787 3 -3 1235 c-2 679 -5
1237 -8 1240 -3 3 -313 6 -688 8 -675 2 -683 2 -701 -18z m1005 0 c0 -5 -8
-10 -17 -10 -15 0 -16 2 -3 10 19 12 20 12 20 0z m-355 -40 c3 -5 1 -10 -4
-10 -6 0 -11 5 -11 10 0 6 2 10 4 10 3 0 8 -4 11 -10z m510 -21 c-4 -5 -12 -9
-18 -8 -9 0 -8 2 1 6 6 2 9 10 6 15 -4 7 -2 8 5 4 6 -4 9 -12 6 -17z m100 11
c3 -5 1 -10 -4 -10 -6 0 -11 5 -11 10 0 6 2 10 4 10 3 0 8 -4 11 -10z m42 -22
c-3 -8 -6 -5 -6 6 -1 11 2 17 5 13 3 -3 4 -12 1 -19z m-595 3 c8 11 9 11 6 1
-4 -16 -22 -18 -24 -2 -2 7 -1 6 3 -1 4 -8 8 -7 15 2z m-381 -11 c15 0 30 -7
33 -16 3 -8 2 -12 -4 -9 -6 3 -13 0 -16 -9 -5 -12 -10 -12 -36 -2 -17 8 -35
21 -41 31 -8 16 -7 17 14 12 13 -4 36 -7 50 -7z m1036 -22 c-3 -7 -5 -2 -5 12
0 14 2 19 5 13 2 -7 2 -19 0 -25z m-180 -18 c11 0 13 -8 8 -31 -5 -22 -4 -29
4 -25 6 4 11 13 11 21 0 8 6 17 13 21 6 4 9 4 5 -1 -4 -4 -3 -14 3 -21 6 -8 8
-21 5 -30 -4 -10 -2 -14 6 -11 7 2 12 10 10 16 -1 7 2 10 8 6 5 -3 10 -1 10 6
0 7 2 10 5 7 3 -3 1 -17 -5 -32 -8 -22 -14 -26 -33 -21 -15 4 -18 3 -8 -3 7
-5 9 -12 4 -15 -6 -4 -27 11 -48 33 -21 22 -42 37 -46 34 -4 -2 -6 6 -3 18 3
13 7 32 8 43 5 31 7 32 18 8 6 -13 17 -23 25 -23z m-184 0 c-3 -11 -9 -20 -14
-20 -14 0 -11 28 4 33 6 3 13 6 14 6 0 1 -1 -8 -4 -19z m-193 -40 c-19 -13
-30 -13 -30 0 0 6 10 10 23 10 18 0 19 -2 7 -10z m234 -32 c-8 -12 -27 6 -30
28 -2 14 0 14 17 -1 10 -10 16 -22 13 -27z m40 26 c-10 -8 -13 -13 -6 -9 6 3
12 1 12 -4 0 -17 -18 -13 -29 7 -8 15 -5 18 17 20 25 2 25 2 6 -14z m-899 -24
c-19 -21 -45 -27 -45 -10 0 6 5 11 10 11 6 1 14 2 19 3 5 0 13 4 17 9 17 16
16 6 -1 -13z m630 10 c-3 -5 -11 -10 -16 -10 -6 0 -7 5 -4 10 3 6 11 10 16 10
6 0 7 -4 4 -10z m-5 -36 c0 -17 12 -18 28 -2 7 7 12 9 12 6 0 -3 -18 -24 -40
-48 -38 -41 -40 -41 -62 -25 -21 16 -21 16 -2 11 14 -4 28 1 44 19 13 14 18
25 12 25 -6 0 -14 -4 -17 -10 -3 -5 -11 -10 -16 -10 -6 0 -8 4 -5 9 4 5 0 12
-6 14 -8 3 -6 6 5 6 10 1 16 5 13 9 -2 4 4 9 15 9 10 1 19 -5 19 -13z m-537
-14 c3 -14 1 -18 -6 -13 -7 4 -23 6 -36 4 -14 -2 -21 1 -17 8 4 5 14 7 23 4
11 -4 14 -3 9 5 -4 7 -1 12 7 12 8 0 17 -9 20 -20z m397 15 c0 -14 -39 -42
-50 -35 -9 6 -6 10 9 15 11 3 21 11 21 16 0 5 5 9 10 9 6 0 10 -2 10 -5z m468
-34 c-15 -5 -21 7 -13 26 7 17 8 17 15 -2 4 -11 3 -22 -2 -24z m117 -1 c3 -5
1 -10 -4 -10 -6 0 -11 5 -11 10 0 6 2 10 4 10 3 0 8 -4 11 -10z m-594 -54
c-12 -17 -29 -30 -44 -32 -29 -3 -28 14 3 34 17 10 19 9 15 -6 -3 -9 3 0 12
20 11 23 20 32 25 25 4 -6 -1 -25 -11 -41z m-435 35 c-4 -5 -1 -11 5 -13 6 -2
1 -15 -11 -31 -17 -21 -27 -26 -44 -21 -32 9 -39 19 -22 33 11 9 16 9 22 0 5
-8 3 -10 -7 -4 -8 5 -11 5 -7 1 9 -10 23 -8 23 4 0 5 9 16 20 24 23 18 28 19
21 7z m394 2 c0 -8 -51 -76 -64 -85 -15 -10 -25 0 -23 22 1 11 8 20 18 20 9 0
24 11 33 25 15 23 36 34 36 18z m-480 -23 c-6 -11 -16 -20 -22 -20 -6 0 -3 9
7 20 10 11 20 20 22 20 2 0 -1 -9 -7 -20z m921 -7 c-12 -20 -14 -14 -5 12 4 9
9 14 11 11 3 -2 0 -13 -6 -23z m-74 -52 c-13 -5 -15 2 -9 39 l6 35 6 -35 c3
-19 1 -37 -3 -39z m-221 38 c19 -22 19 -22 -3 -10 -24 12 -39 31 -25 31 5 0
17 -10 28 -21z m46 -11 c-7 -7 -12 -8 -12 -2 0 6 3 14 7 17 3 4 9 5 12 2 2 -3
-1 -11 -7 -17z m-84 -4 c-1 -5 -9 -9 -16 -10 -10 -2 -11 1 -1 12 12 14 24 13
17 -2z m-498 -14 c0 -5 -5 -10 -11 -10 -5 0 -7 5 -4 10 3 6 8 10 11 10 2 0 4
-4 4 -10z m516 -44 c-1 -20 -4 -22 -16 -13 -13 11 -13 10 -1 -6 12 -16 16 -16
36 -3 23 15 23 15 12 -13 -9 -23 -7 -34 7 -55 9 -15 21 -24 26 -21 6 4 10 -2
10 -12 0 -15 2 -16 10 -3 8 13 10 12 10 -2 0 -10 5 -18 11 -18 5 0 7 5 3 12
-5 7 -3 8 5 3 8 -4 9 -11 4 -16 -15 -15 -197 34 -201 54 -2 10 2 17 8 17 8 0
10 10 7 27 l-5 28 19 -24 c10 -13 19 -18 19 -11 0 9 4 9 17 -1 12 -10 10 -4
-5 18 -22 31 -22 32 -2 38 11 3 20 11 20 16 0 5 2 9 4 9 2 0 3 -11 2 -24z
m-320 -71 c-2 -5 -9 -9 -16 -7 -7 1 -18 -5 -26 -15 -7 -10 -14 -13 -14 -7 0 5
5 15 12 22 9 9 8 12 -7 13 -11 1 -26 1 -32 0 -7 -1 -13 3 -13 9 0 6 -6 8 -12
4 -8 -5 -7 -1 2 10 8 11 16 14 18 7 2 -6 14 -11 26 -11 12 0 27 -5 34 -12 9
-9 12 -9 12 0 0 7 -4 12 -8 12 -5 0 -9 6 -9 13 0 6 -4 21 -8 32 -3 11 5 2 19
-20 14 -22 24 -44 22 -50z m551 63 c-3 -8 -6 -5 -6 6 -1 11 2 17 5 13 3 -3 4
-12 1 -19z m-611 -15 c-7 -7 -26 7 -26 19 0 6 6 6 15 -2 9 -7 13 -15 11 -17z
m79 -3 c3 -5 1 -10 -4 -10 -6 0 -11 5 -11 10 0 6 2 10 4 10 3 0 8 -4 11 -10z
m-249 -27 c-10 -10 -19 5 -10 18 6 11 8 11 12 0 2 -7 1 -15 -2 -18z m321 -10
c-3 -10 -5 -4 -5 12 0 17 2 24 5 18 2 -7 2 -21 0 -30z m73 31 c0 -3 -11 -19
-25 -36 -29 -34 -32 -29 -8 13 16 26 33 38 33 23z m-330 -14 c0 -5 -5 -10 -11
-10 -5 0 -7 5 -4 10 3 6 8 10 11 10 2 0 4 -4 4 -10z m220 -44 c0 -6 -7 -2 -15
8 -8 11 -15 25 -15 30 0 6 7 2 15 -8 8 -11 15 -25 15 -30z m190 35 c0 -6 -4
-13 -10 -16 -5 -3 -10 1 -10 9 0 9 5 16 10 16 6 0 10 -4 10 -9z m212 -59 c-4
-12 -7 -12 -18 3 -7 9 -10 23 -7 31 4 12 8 12 18 -3 7 -9 10 -24 7 -31z m-235
21 c2 -6 -4 -13 -13 -17 -14 -5 -15 -4 -5 8 8 10 9 16 1 19 -6 3 -5 4 2 3 6
-1 13 -7 15 -13z m-425 -23 l11 -25 6 25 c7 24 7 24 19 5 10 -17 11 -18 12 -2
0 20 20 23 38 5 9 -9 -3 -19 -55 -45 l-68 -33 -13 37 c-7 21 -10 43 -8 50 8
21 48 10 58 -17z m128 8 c0 -13 -23 -5 -28 10 -2 7 2 10 12 6 9 -3 16 -11 16
-16z m73 -24 c-3 -8 -9 -14 -13 -14 -4 0 -13 6 -19 14 -9 11 -7 14 13 14 17 0
23 -5 19 -14z m-70 -11 c-6 -15 -4 -16 9 -5 12 10 18 10 23 1 4 -6 1 -15 -6
-20 -10 -6 -6 -9 14 -9 39 0 34 -20 -5 -21 -18 0 -27 -3 -20 -6 9 -3 -1 -14
-28 -30 -40 -24 -43 -24 -58 -8 -16 16 -16 17 8 5 22 -12 23 -11 13 2 -16 19
-7 28 26 29 24 0 24 1 6 9 -16 7 -17 9 -3 9 9 1 19 5 22 10 3 4 -7 6 -22 4
-25 -4 -25 -3 -9 10 9 8 17 19 17 26 0 6 4 11 10 11 5 0 6 -8 3 -17z m304 10
c-4 -3 -2 -12 4 -20 11 -12 2 -18 -23 -14 -5 0 -8 -3 -8 -9 0 -5 -4 -10 -8
-10 -15 0 -9 34 7 47 17 13 39 18 28 6z m364 -28 c0 6 4 1 9 -10 l9 -20 1 20
c1 20 1 20 15 1 15 -20 15 -20 15 0 0 13 7 20 19 20 16 0 17 -4 10 -18 -5 -10
-7 -18 -4 -18 3 0 1 -9 -5 -20 -8 -16 -8 -20 2 -18 7 2 12 -5 11 -16 -1 -13 2
-15 10 -7 7 7 7 14 0 23 -6 7 -10 21 -10 30 0 14 3 15 14 7 7 -6 13 -8 13 -3
0 4 5 3 11 -3 8 -8 4 -22 -15 -51 -14 -22 -31 -43 -38 -46 -7 -3 -2 -4 12 -2
23 4 21 1 -14 -30 -22 -19 -35 -34 -31 -34 5 0 -4 -13 -20 -30 -30 -31 -55
-39 -55 -17 0 9 -3 8 -9 -2 -15 -23 -31 -3 -21 25 6 14 10 39 10 56 0 41 8 32
14 -16 5 -37 24 -72 34 -61 3 3 -3 15 -14 27 -19 23 -19 23 2 6 29 -25 37 -22
18 7 -18 28 -13 33 10 9 15 -14 16 -14 16 5 0 12 4 21 9 21 14 0 -27 73 -47
85 -34 19 -72 53 -72 64 0 15 17 14 23 -1 3 -8 6 -5 6 6 1 15 4 16 16 6 12
-10 16 -9 21 5 5 13 9 14 15 3 5 -7 9 -8 10 -3z m-328 -29 c9 1 17 -2 17 -7 0
-11 22 -7 33 6 5 6 6 0 4 -13 -5 -20 -2 -23 14 -19 10 3 19 2 19 -1 0 -4 5
-14 10 -22 8 -13 11 -12 25 5 14 19 15 18 5 -8 -17 -47 -10 -55 10 -12 17 36
19 37 14 10 l-5 -30 16 25 c9 14 14 18 12 10 -11 -37 -16 -64 -11 -52 3 6 10
10 15 6 5 -3 9 3 9 12 0 10 2 15 5 13 2 -3 7 -47 10 -98 5 -83 4 -96 -13 -115
-24 -26 -42 -79 -21 -58 8 7 14 18 14 24 0 6 7 13 15 15 13 4 13 3 0 -6 -8 -6
-11 -11 -6 -11 5 0 0 -10 -12 -23 -12 -13 -20 -26 -17 -29 3 -3 -3 -11 -12
-19 -17 -13 -17 -13 -3 6 12 17 12 18 0 7 -8 -7 -16 -25 -16 -40 -4 -71 -8
-65 -54 88 -16 52 -43 129 -61 170 -17 41 -31 84 -31 95 1 11 -7 28 -16 39
-16 18 -16 18 5 7 12 -6 28 -11 35 -10 7 0 -4 9 -26 19 -22 10 -33 20 -25 22
8 3 16 2 19 -2 3 -4 13 -6 23 -4z m-433 -7 c0 -13 -28 -18 -33 -6 -3 7 3 13
14 13 11 0 19 -3 19 -7z m-89 -42 c-10 -9 -11 -8 -5 6 3 10 9 15 12 12 3 -3 0
-11 -7 -18z m259 6 c0 -2 -17 -19 -39 -38 -30 -27 -37 -40 -33 -60 8 -43 -6
-69 -52 -100 -33 -23 -42 -33 -34 -43 8 -9 7 -11 -5 -6 -8 3 -18 13 -22 22 -3
9 -3 13 1 10 9 -10 32 15 27 29 -3 7 -10 10 -17 6 -7 -4 -7 -1 1 9 7 8 12 17
10 19 -1 2 4 -2 11 -10 6 -8 12 -19 12 -25 0 -5 3 -7 6 -4 3 4 -1 19 -10 36
-15 28 -14 29 7 28 13 -1 23 -9 25 -21 l4 -20 -16 20 c-16 19 -16 19 -4 -8 10
-24 13 -26 21 -11 6 10 5 25 -2 41 -10 21 -9 29 6 45 10 11 17 22 16 24 -8 12
-1 24 10 18 9 -5 9 -4 -1 7 -10 11 -8 15 10 26 20 10 68 15 68 6z m231 -10
c13 -16 12 -17 -3 -4 -17 13 -22 21 -14 21 2 0 10 -8 17 -17z m4 -37 c8 -13
13 -31 9 -40 -9 -23 -26 -8 -18 16 3 11 2 18 -3 15 -5 -3 -9 3 -9 14 0 24 2
24 21 -5z m293 -1 c-3 -3 -9 2 -12 12 -6 14 -5 15 5 6 7 -7 10 -15 7 -18z
m-738 -28 c0 -7 -9 -20 -19 -29 -17 -14 -20 -14 -25 -2 -3 8 -2 13 3 10 5 -3
11 3 14 14 6 22 27 28 27 7z m167 -29 c-3 -8 -6 -5 -6 6 -1 11 2 17 5 13 3 -3
4 -12 1 -19z m-367 8 c0 -3 -4 -8 -10 -11 -5 -3 -10 -1 -10 4 0 6 5 11 10 11
6 0 10 -2 10 -4z m-38 -38 c-7 -7 -12 -8 -12 -2 0 6 3 14 7 17 3 4 9 5 12 2 2
-3 -1 -11 -7 -17z m-36 -24 c-4 -9 -9 -15 -11 -12 -3 3 -3 13 1 22 4 9 9 15
11 12 3 -3 3 -13 -1 -22z m1295 3 c-10 -9 -11 -8 -5 6 3 10 9 15 12 12 3 -3 0
-11 -7 -18z m-1211 -1 c0 -2 -8 -10 -17 -17 -16 -13 -17 -12 -4 4 13 16 21 21
21 13z m282 -71 c0 -5 -5 -11 -10 -13 -5 -1 -9 4 -9 13 0 9 4 14 9 13 5 -2 10
-8 10 -13z m-357 -15 c-3 -5 -12 -10 -18 -10 -7 0 -6 4 3 10 19 12 23 12 15 0z
m299 -21 c-8 -14 -30 -10 -45 8 -8 10 -9 14 -2 10 6 -4 15 -3 18 3 5 8 11 7
21 -1 7 -6 11 -15 8 -20z m49 -10 c-18 -12 -30 -26 -26 -32 3 -5 1 -7 -5 -3
-6 3 -14 -3 -17 -15 -5 -16 -10 -18 -18 -9 -9 8 -8 15 6 24 9 7 17 18 17 23 0
11 38 31 60 32 8 0 0 -9 -17 -20z m-85 -24 c-3 -3 -9 2 -12 12 -6 14 -5 15 5
6 7 -7 10 -15 7 -18z m842 -57 c0 -5 -4 -8 -10 -8 -5 0 -10 10 -10 23 0 18 2
19 10 7 5 -8 10 -18 10 -22z m-103 -20 c-3 -8 -6 -5 -6 6 -1 11 2 17 5 13 3
-3 4 -12 1 -19z m-574 -8 c3 -11 1 -18 -4 -14 -5 3 -9 12 -9 20 0 20 7 17 13
-6z m514 -12 c-3 -7 -5 -2 -5 12 0 14 2 19 5 13 2 -7 2 -19 0 -25z m-531 -36
c-6 -27 -6 -27 7 -4 13 22 13 22 26 -13 7 -19 9 -39 6 -45 -3 -5 -1 -10 6 -10
8 0 10 -20 4 -77 -4 -43 -9 -89 -10 -103 -1 -17 -11 -30 -33 -41 -17 -9 -39
-23 -49 -30 -11 -9 -14 -10 -9 -1 4 7 1 12 -8 12 -19 0 -20 9 -2 33 12 15 13
72 4 156 0 3 1 20 2 36 l2 30 8 -30 c7 -26 8 -22 10 25 2 30 5 45 7 32 8 -41
20 -14 17 40 -3 41 -1 49 7 35 6 -10 8 -30 5 -45z m514 -1 c0 -18 -10 -41 -25
-57 -14 -15 -25 -22 -25 -17 0 6 6 16 14 22 8 7 17 27 20 46 8 43 16 45 16 6z
m-215 -61 c1 -16 -5 -32 -12 -34 -7 -3 -13 1 -13 9 0 8 5 15 11 15 5 0 7 5 4
10 -5 8 1 30 8 30 1 0 2 -13 2 -30z m500 -20 c-3 -11 -2 -20 4 -20 5 0 12 -8
15 -17 3 -10 4 -6 2 9 -2 15 1 33 5 40 6 9 9 7 9 -9 0 -12 5 -25 12 -29 6 -4
8 -3 4 4 -3 6 -1 14 5 17 19 12 22 -4 6 -29 -37 -57 -57 -99 -59 -124 -2 -26
-45 -88 -112 -159 l-30 -33 -23 93 c-26 110 -26 109 -7 77 15 -25 15 -25 11
15 l-5 40 19 -40 19 -40 -3 34 c-1 22 3 36 12 39 8 3 11 0 7 -6 -3 -6 -2 -14
4 -17 6 -4 9 -3 8 2 -1 4 1 24 5 43 4 19 3 51 -3 69 -5 19 -8 37 -6 39 3 2 10
-16 17 -40 7 -23 17 -47 22 -53 6 -6 7 -3 4 10 -16 58 -19 87 -8 81 6 -4 11
-21 11 -37 0 -17 6 -32 15 -35 8 -4 15 -13 15 -21 0 -8 4 -12 9 -9 5 3 6 26 4
50 -5 44 0 76 12 76 4 0 3 -9 0 -20z m-297 -9 c-7 -9 -13 -18 -15 -20 -1 -2
-1 5 0 16 0 11 7 20 14 20 10 0 10 -4 1 -16z m112 -30 c0 -23 -26 -9 -28 15
-2 22 0 24 13 10 8 -8 15 -19 15 -25z m-950 -5 c0 -5 -7 -3 -15 4 -8 7 -12 17
-9 22 7 10 24 -9 24 -26z m870 10 c0 -3 -4 -8 -10 -11 -5 -3 -10 -1 -10 4 0 6
5 11 10 11 6 0 10 -2 10 -4z m-238 -73 c12 -34 13 -34 20 -12 6 20 7 19 4 -6
-2 -16 -6 -40 -9 -52 -10 -40 9 -25 29 23 10 25 20 40 22 34 3 -8 8 -8 18 0
10 9 15 6 20 -16 l7 -27 19 36 c19 37 36 51 24 20 -6 -14 -3 -14 15 3 23 19
23 19 -1 -16 l-23 -35 42 40 43 40 -21 -35 c-12 -19 -29 -46 -39 -60 l-16 -25
22 19 c23 20 23 20 16 0 -7 -19 -7 -19 14 0 12 11 22 15 22 10 0 -5 7 0 15 10
25 33 17 -1 -9 -39 -24 -34 -26 -72 -4 -59 6 4 8 -2 4 -15 -17 -59 -17 -67 0
-37 9 15 14 38 12 51 -3 12 1 30 8 39 11 15 13 14 23 -16 6 -18 15 -64 21
-101 l11 -69 -46 -42 c-25 -23 -47 -41 -50 -39 -3 2 -3 0 0 -4 3 -3 -2 -17
-10 -30 -21 -32 -6 -29 23 5 27 32 18 10 -14 -33 -12 -16 -33 -50 -46 -75 -20
-39 -28 -45 -56 -47 -69 -3 -42 -13 34 -12 64 0 75 2 57 11 -27 13 -27 15 -7
48 l15 25 -6 -30 -5 -30 20 25 c42 52 50 64 50 80 0 13 2 13 9 1 7 -11 13 -7
24 20 9 19 16 27 17 19 1 -8 3 -24 6 -35 6 -30 14 -174 8 -148 -4 17 -14 22
-55 25 -38 2 -50 -1 -54 -13 -5 -16 -53 -23 -147 -21 l-38 0 -1 -66 c-1 -101
-7 -65 -18 120 -6 92 -21 211 -32 265 -25 114 -32 324 -12 316 7 -3 18 -21 25
-40z m538 -44 c-7 -11 -14 -19 -16 -16 -7 7 7 37 17 37 6 0 5 -9 -1 -21z
m-896 -4 c3 -8 1 -15 -4 -15 -6 0 -10 7 -10 15 0 8 2 15 4 15 2 0 6 -7 10 -15z
m-32 -57 c-6 -6 -8 -1 -7 14 4 39 8 44 12 19 3 -13 0 -28 -5 -33z m-262 33 c0
-5 -7 -12 -16 -15 -14 -5 -15 -4 -4 9 14 17 20 19 20 6z m1252 -33 c-17 -17
-15 -28 4 -21 15 5 16 1 10 -33 -8 -41 -17 -55 -78 -117 -21 -21 -38 -46 -38
-54 0 -9 -8 -22 -17 -29 -17 -13 -17 -14 2 -8 14 5 9 -3 -15 -25 -28 -26 -30
-30 -10 -20 14 7 39 22 55 34 42 31 105 68 105 62 0 -3 -16 -15 -35 -27 -19
-12 -33 -26 -30 -30 3 -5 0 -12 -6 -16 -8 -5 -9 -3 -4 6 5 8 3 11 -6 8 -8 -3
-14 -10 -14 -16 0 -6 -6 -17 -14 -24 -10 -10 -12 -10 -7 0 13 22 -10 12 -35
-15 -14 -17 -16 -22 -5 -13 19 15 19 14 1 -20 l-17 -35 32 30 33 30 -27 -37
c-15 -20 -29 -45 -30 -55 -2 -10 -11 -17 -20 -17 -12 1 -16 -7 -17 -35 -1 -45
-23 67 -34 174 -6 64 -4 73 15 95 13 14 29 39 37 55 l14 30 -5 -30 c-2 -16 -8
-39 -11 -50 -6 -20 -6 -20 6 0 7 10 18 37 26 60 l13 40 -4 -38 c-7 -52 10 -37
24 23 11 46 30 77 30 50 0 -6 4 -9 10 -5 5 3 6 13 3 22 -4 10 -2 14 5 10 6 -4
13 1 16 10 2 10 3 -4 1 -32 l-4 -50 10 40 c5 22 8 48 5 58 -2 9 0 17 5 17 5 0
9 8 9 17 0 13 3 14 12 5 9 -9 9 -15 0 -24z m58 -13 c-10 -12 -10 -15 1 -15 8
0 5 -6 -7 -14 -10 -8 -20 -13 -21 -12 -1 1 3 19 9 39 8 25 15 34 21 28 7 -7 6
-15 -3 -26z m-920 -31 c0 -14 4 -22 10 -19 5 3 23 -22 39 -56 24 -50 34 -63
55 -65 26 -3 76 35 76 56 0 6 4 10 8 10 17 0 34 -131 37 -295 2 -93 2 -159 -1
-145 -8 44 -27 70 -48 70 -20 -1 -20 -2 -4 -14 20 -15 14 -28 -10 -19 -10 4
-13 2 -8 -5 3 -6 1 -14 -5 -18 -7 -4 -9 -3 -5 4 3 6 2 13 -4 17 -5 3 -10 -1
-10 -9 0 -9 -5 -16 -11 -16 -5 0 -7 5 -4 10 3 6 1 10 -4 10 -6 0 -11 -4 -11
-8 0 -8 -7 -10 -50 -14 -11 -1 -20 -5 -20 -8 0 -3 -16 -5 -35 -4 -23 1 -33 -2
-28 -9 4 -6 0 -8 -11 -4 -9 4 -15 3 -12 -1 2 -4 -2 -16 -10 -27 -13 -17 -14
-13 -13 42 l2 61 33 -5 c22 -4 34 -2 34 6 0 12 -44 26 -58 17 -10 -6 -22 113
-22 229 0 39 -2 83 -4 98 -4 24 0 29 25 34 16 3 32 10 36 16 4 6 -7 7 -32 3
-25 -5 -35 -4 -30 3 3 6 19 11 35 11 16 0 32 5 35 10 3 6 -1 10 -9 10 -20 0
-20 9 1 32 22 25 33 23 33 -8z m754 -28 c-3 -15 -8 -25 -11 -23 -2 3 -1 17 3
31 3 15 8 25 11 23 2 -3 1 -17 -3 -31z m-944 -46 c0 -5 -2 -10 -4 -10 -3 0 -8
5 -11 10 -3 6 -1 10 4 10 6 0 11 -4 11 -10z m-20 -20 c0 -5 -7 -7 -15 -4 -8 4
-15 8 -15 10 0 2 7 4 15 4 8 0 15 -4 15 -10z m-233 -68 c1 -15 -6 -21 -28 -24
-16 -3 -29 -4 -29 -3 0 1 5 16 11 33 9 25 14 30 28 23 9 -5 17 -18 18 -29z
m1428 -30 c-5 -5 -25 43 -25 61 1 7 7 -3 16 -22 8 -19 12 -36 9 -39z m-1533
36 c-7 -7 -12 -8 -12 -2 0 14 12 26 19 19 2 -3 -1 -11 -7 -17z m355 -10 c-3
-7 -5 -2 -5 12 0 14 2 19 5 13 2 -7 2 -19 0 -25z m-380 -3 c0 -8 -4 -12 -9 -9
-5 3 -6 10 -3 15 9 13 12 11 12 -6z m1520 -17 c-3 -8 -6 -5 -6 6 -1 11 2 17 5
13 3 -3 4 -12 1 -19z m-1480 -20 c-3 -8 -6 -5 -6 6 -1 11 2 17 5 13 3 -3 4
-12 1 -19z m-37 -8 c0 -11 -4 -20 -9 -20 -5 0 -7 9 -4 20 3 11 7 20 9 20 2 0
4 -9 4 -20z m193 3 c-3 -7 -9 -10 -14 -7 -14 8 -11 21 5 21 8 0 12 -6 9 -14z
m1162 7 c-3 -5 -12 -10 -18 -10 -7 0 -6 4 3 10 19 12 23 12 15 0z m203 -55 c0
-16 -2 -15 -8 5 -11 34 -11 60 0 35 5 -11 8 -29 8 -40z m-31 8 c-3 -10 -5 -4
-5 12 0 17 2 24 5 18 2 -7 2 -21 0 -30z m-1369 10 c-6 -7 -12 -13 -13 -13 -2
0 -5 6 -8 13 -3 7 3 13 14 13 13 0 15 -3 7 -13z m-102 -2 c-3 -5 -1 -23 5 -41
8 -22 8 -35 1 -42 -7 -7 -10 -6 -9 3 0 8 -1 25 -1 38 -2 21 -4 22 -19 10 -14
-12 -14 -10 1 14 16 24 36 41 22 18z m71 -23 c-3 -8 -6 -5 -6 6 -1 11 2 17 5
13 3 -3 4 -12 1 -19z m-17 -12 c0 -2 -8 -10 -17 -17 -16 -13 -17 -12 -4 4 13
16 21 21 21 13z m1427 -11 c-4 -8 -2 -17 3 -20 5 -3 11 3 13 12 3 10 5 -6 6
-34 1 -49 0 -53 -21 -49 -13 2 -34 -1 -47 -6 -23 -8 -23 -8 -7 14 9 13 24 40
33 61 15 35 32 54 20 22z m-78 -72 c1 -12 -3 -24 -7 -27 -5 -3 -9 16 -10 42
-1 35 2 42 8 27 5 -11 9 -30 9 -42z m-1442 5 c-3 -7 -5 -2 -5 12 0 14 2 19 5
13 2 -7 2 -19 0 -25z m1392 -5 c0 -29 -2 -33 -8 -18 -7 18 -4 55 5 55 2 0 4
-17 3 -37z m-48 -26 c-10 -9 -11 -8 -5 6 3 10 9 15 12 12 3 -3 0 -11 -7 -18z
m-184 -114 c-3 -10 -5 -4 -5 12 0 17 2 24 5 18 2 -7 2 -21 0 -30z m80 -5 c-3
-7 -5 -2 -5 12 0 14 2 19 5 13 2 -7 2 -19 0 -25z m-1330 0 c-3 -8 -6 -5 -6 6
-1 11 2 17 5 13 3 -3 4 -12 1 -19z m473 -3 c-15 -18 1 -20 18 -3 7 7 12 9 12
6 0 -3 -17 -18 -37 -34 -29 -21 -33 -22 -19 -6 11 12 16 22 11 22 -4 0 -2 7 5
15 7 8 15 15 17 15 3 0 0 -7 -7 -15z m-2133 -61 c-3 -3 -12 -4 -19 -1 -8 3 -5
6 6 6 11 1 17 -2 13 -5z m1330 -90 c-3 -3 -12 -4 -19 -1 -8 3 -5 6 6 6 11 1
17 -2 13 -5z"/>
<path d="M3414 2997 c3 -10 6 -25 6 -33 0 -8 5 -14 11 -14 12 0 2 40 -14 55
-7 7 -8 4 -3 -8z"/>
<path d="M4357 2893 c3 -7 9 -10 14 -7 14 8 11 21 -5 21 -8 0 -12 -6 -9 -14z"/>
<path d="M4106 2168 c-9 -12 -16 -17 -16 -10 0 18 -17 6 -32 -21 -10 -19 -9
-20 4 -10 8 7 17 11 20 8 2 -3 15 6 28 20 13 14 21 27 18 31 -3 3 -13 -5 -22
-18z"/>
<path d="M4291 1904 c0 -11 3 -14 6 -6 3 7 2 16 -1 19 -3 4 -6 -2 -5 -13z"/>
<path d="M3160 3165 c32 -12 33 -14 10 -15 -15 -2 -18 -4 -9 -7 8 -2 29 2 45
8 l29 12 -30 7 c-16 4 -41 8 -55 8 -21 0 -20 -1 10 -13z"/>
<path d="M3115 3049 c-4 -6 -5 -12 -2 -15 2 -3 7 2 10 11 7 17 1 20 -8 4z"/>
<path d="M838 2594 c-6 -5 -29 -11 -53 -13 -5 -1 -4 -5 4 -10 15 -10 61 6 61
21 0 9 -4 10 -12 2z"/>
<path d="M3209 2380 c-19 -16 -20 -19 -5 -13 13 4 17 3 12 -5 -5 -8 -1 -10 10
-5 12 4 14 8 6 11 -10 3 -10 7 -1 18 17 20 5 17 -22 -6z"/>
<path d="M3043 2236 c-9 -10 -9 -16 0 -26 9 -9 8 -11 -8 -8 -11 1 -20 -2 -20
-9 0 -6 -13 -21 -28 -33 -15 -12 -26 -25 -23 -27 11 -11 91 69 93 93 2 28 2
28 -14 10z"/>
<path d="M3070 2175 c-6 -8 -10 -22 -7 -32 3 -13 5 -11 6 7 1 18 4 21 10 12 7
-11 9 -11 14 2 8 21 -8 29 -23 11z"/>
<path d="M3021 2124 c0 -11 3 -14 6 -6 3 7 2 16 -1 19 -3 4 -6 -2 -5 -13z"/>
<path d="M3360 1965 c-14 -8 -20 -14 -14 -15 5 0 19 7 30 15 24 18 16 19 -16
0z"/>
<path d="M2961 1824 c0 -11 3 -14 6 -6 3 7 2 16 -1 19 -3 4 -6 -2 -5 -13z"/>
<path d="M575 1820 c-3 -5 -1 -10 4 -10 6 0 11 5 11 10 0 6 -2 10 -4 10 -3 0
-8 -4 -11 -10z"/>
<path d="M740 1809 c0 -4 11 -6 25 -6 13 0 22 3 20 8 -6 9 -45 8 -45 -2z"/>
<path d="M2228 1793 c6 -2 18 -2 25 0 6 3 1 5 -13 5 -14 0 -19 -2 -12 -5z"/>
<path d="M2633 1773 c9 -2 25 -2 35 0 9 3 1 5 -18 5 -19 0 -27 -2 -17 -5z"/>
<path d="M2698 1773 c6 -2 18 -2 25 0 6 3 1 5 -13 5 -14 0 -19 -2 -12 -5z"/>
<path d="M1548 1763 c7 -3 16 -2 19 1 4 3 -2 6 -13 5 -11 0 -14 -3 -6 -6z"/>
<path d="M620 1740 c6 -11 13 -20 15 -20 3 0 5 9 5 20 0 11 -7 20 -15 20 -13
0 -14 -4 -5 -20z"/>
<path d="M1600 1740 l-35 -7 37 -2 c20 0 40 4 43 9 7 11 7 11 -45 0z"/>
<path d="M1513 1723 c9 -2 25 -2 35 0 9 3 1 5 -18 5 -19 0 -27 -2 -17 -5z"/>
<path d="M1185 1700 c-48 -7 -47 -7 25 -8 52 -1 70 1 60 8 -8 5 -19 9 -25 8
-5 -1 -32 -4 -60 -8z"/>
<path d="M1398 1703 c12 -2 30 -2 40 0 9 3 -1 5 -23 4 -22 0 -30 -2 -17 -4z"/>
<path d="M500 1676 c0 -21 5 -26 26 -26 30 0 28 16 -4 38 -21 14 -22 13 -22
-12z"/>
<path d="M420 1430 c58 -4 167 -8 242 -9 75 0 148 -5 162 -11 23 -8 26 -7 26
10 0 19 -7 20 -267 18 -210 -1 -245 -3 -163 -8z"/>
<path d="M1235 795 c763 -27 1645 -37 2270 -26 555 10 1213 28 1295 35 19 1
-854 3 -1940 3 -1753 0 -1936 -1 -1625 -12z"/>
</g>
</svg>
